<svg width="360" height="248" viewBox="0 0 360 248" fill="none" xmlns="http://www.w3.org/2000/svg">
<path d="M284 87.8391L284 189.839L78 189.839L78 87.8391L284 87.8391Z" fill="#6511A6"/>
<path d="M281 87.3324L308 49.8391V197.839L281 189.946V87.3324Z" fill="url(#paint0_linear_83_246)"/>
<path d="M79 88.3191L52 49.8391V197.839L79 188.959V88.3191Z" fill="url(#paint1_linear_83_246)"/>
<path d="M78.2047 87.8391L52 49.8391L308 49.8391L281.795 87.8391L78.2047 87.8391Z" fill="url(#paint2_linear_83_246)"/>
<path d="M77.9999 188.839L52 196.839L306 196.839L280 188.839L77.9999 188.839Z" fill="url(#paint3_linear_83_246)"/>
<path fill-rule="evenodd" clip-rule="evenodd" d="M184.713 30.6216C185.136 31.2743 185.706 31.6772 186.423 31.8303L216.903 38.337C217.621 38.4901 218.305 38.3551 218.958 37.932C219.611 37.509 220.014 36.9389 220.167 36.2217L224.76 14.7065C224.913 13.9893 224.778 13.3044 224.355 12.6516C223.932 11.9989 223.362 11.596 222.645 11.4429L214.576 9.7206L214.978 7.83907L308 7.83908V17.0983L294.905 13.5896C294.277 13.4214 293.665 13.5096 293.068 13.8543C292.471 14.1991 292.088 14.6853 291.92 15.3132L286.452 35.7184C286.284 36.3462 286.372 36.9587 286.717 37.5557C287.062 38.1528 287.548 38.5355 288.176 38.7037L308 44.0155V49.8391L151.676 49.8391L152.16 48.9997L135.203 39.2094L134.464 40.4897L150.658 49.8391L51.9999 49.8391V46.6235L54.031 47.1677C54.6814 47.342 55.2929 47.2784 55.8653 46.9768C56.4378 46.6752 56.8449 46.206 57.0868 45.5692L62.2136 31.4826C62.2972 31.2403 62.3081 31.005 62.2462 30.7767C62.1843 30.5484 62.0698 30.3416 61.9027 30.1563C61.6798 29.8742 61.525 29.5613 61.4384 29.2177C61.3518 28.874 61.3593 28.5126 61.4609 28.1336C61.5448 27.8206 61.6887 27.532 61.8926 27.2678C62.0965 27.0036 62.3495 26.8046 62.6516 26.6706L62.711 26.6585C62.9603 26.5735 63.1589 26.4271 63.3069 26.2191C63.4549 26.0112 63.5381 25.7813 63.5565 25.5293L63.6569 21.6115C63.6722 21.3151 63.5912 21.0495 63.4139 20.8147C63.2365 20.58 63.002 20.4235 62.7104 20.3454L57.6571 18.9913L58.384 16.2783L60.9336 16.9615L61.4503 15.033L54.4227 13.1499L53.9059 15.0784L56.4555 15.7616L55.7286 18.4746L51.9999 17.4755V7.83907L83.6083 7.83907C83.556 7.91449 83.5048 7.99157 83.4546 8.07031C82.6083 9.39755 82.269 10.8062 82.4366 12.2962L84.1292 26.3952C84.2929 27.6546 84.7575 28.551 85.5231 29.0843C86.2887 29.6177 87.1848 29.7468 88.2116 29.4717C88.8331 29.3052 89.3328 29.0626 89.7109 28.7441C90.0889 28.4257 90.3867 28.078 90.6043 27.7011L93.69 22.3565L106.903 18.816L112.248 21.9018C112.625 22.1194 113.056 22.2716 113.543 22.3584C114.03 22.4452 114.584 22.4053 115.205 22.2388C116.232 21.9637 116.943 21.4038 117.34 20.5591C117.736 19.7144 117.69 18.7058 117.202 17.5334L113.09 7.83907L188.733 7.83907L184.308 28.5668C184.155 29.284 184.29 29.9689 184.713 30.6216ZM191.545 7.83907H188.733L188.901 7.05159C189.054 6.33441 189.457 5.7643 190.11 5.34124C190.762 4.91818 191.447 4.7832 192.165 4.9363L200.233 6.65865L201.19 2.17631C201.343 1.45914 201.746 0.88902 202.398 0.465962C203.051 0.0429047 203.736 -0.0920753 204.453 0.0610223L213.418 1.97474C214.135 2.12784 214.705 2.53074 215.128 3.18344C215.551 3.83615 215.686 4.52109 215.533 5.23826L214.978 7.83907H212.166L212.844 4.66415L203.879 2.75043L202.922 7.23276L205.762 7.83907L192.59 7.83907L191.59 7.6257L191.545 7.83907ZM191.545 7.83907H192.59L222.07 14.1324L217.477 35.6476L186.998 29.1409L191.545 7.83907ZM205.762 7.83907L211.887 9.14648L212.166 7.83907H205.762ZM110.322 7.83907H113.09L111.659 4.466C111.059 3.09184 110.061 2.0416 108.665 1.31529C107.268 0.588977 105.854 0.417683 104.422 0.801409L86.872 5.50386C85.5249 5.86482 84.437 6.64322 83.6083 7.83907H87.8843L87.4831 7.94656C86.6725 8.16376 86.0158 8.65828 85.5131 9.43011C85.0104 10.2019 84.8182 11.0788 84.9365 12.0607L86.6726 26.3219C86.6837 26.5796 86.7826 26.8137 86.9694 27.0243C87.1562 27.2349 87.3711 27.3076 87.6143 27.2425C87.8035 27.1918 88.0141 27.0051 88.2461 26.6822L91.9846 20.207L107.305 16.1018L113.78 19.8403C113.952 19.9392 114.228 19.9957 114.608 20.0096C114.851 19.9445 115.001 19.774 115.057 19.4982C115.114 19.2225 115.082 18.9702 114.963 18.7415L110.322 7.83907ZM104.403 7.83907H110.322L109.336 5.52292C108.947 4.6134 108.343 3.95011 107.521 3.53305C106.7 3.11598 105.884 3.01605 105.073 3.23325L87.8843 7.83907L101.05 7.83907C101.054 7.9605 101.073 8.08279 101.106 8.20595C101.222 8.63828 101.485 8.97312 101.897 9.21049C102.308 9.44785 102.729 9.50861 103.162 9.39277C103.594 9.27693 103.929 9.01344 104.166 8.60232C104.311 8.35184 104.39 8.09742 104.403 7.83907ZM104.403 7.83907C104.412 7.67338 104.394 7.50607 104.349 7.33714C104.233 6.90481 103.969 6.56996 103.558 6.3326C103.147 6.09524 102.725 6.03447 102.293 6.15032C101.861 6.26616 101.526 6.52964 101.288 6.94077C101.119 7.23478 101.039 7.53421 101.05 7.83907L104.403 7.83907ZM51.9999 19.5425L51.9999 17.4755L50.6752 17.1205C50.3898 17.0441 50.1088 17.0645 49.832 17.1819C49.5553 17.2993 49.3521 17.4866 49.2224 17.7438L47.2808 21.2768C47.1738 21.4934 47.1316 21.7314 47.1543 21.9909C47.177 22.2504 47.2697 22.4778 47.4322 22.6732L47.4938 22.7177C47.6914 22.9739 47.8125 23.2673 47.857 23.5981C47.9015 23.9288 47.8806 24.2552 47.7943 24.5773C47.6984 24.9351 47.5231 25.2387 47.2682 25.4881C47.0134 25.7374 46.7163 25.9334 46.3768 26.076L46.3436 26.0951C46.1117 26.1848 45.9142 26.3118 45.751 26.4761C45.5879 26.6404 45.4916 26.8341 45.4622 27.0571L42.9291 41.7932C42.8192 42.4416 42.9376 43.0428 43.2845 43.5967C43.6313 44.1507 44.1281 44.5143 44.7749 44.6876L51.9999 46.6235V44.5566L54.5477 45.2392C54.6893 45.2772 54.8216 45.263 54.9445 45.1967C55.0674 45.1303 55.1518 45.0332 55.1978 44.9054L60.1893 31.3886C59.8949 30.9968 59.6716 30.5708 59.5193 30.1107C59.3669 29.6507 59.2996 29.1696 59.3174 28.6676L51.9999 26.7068V24.6399L59.8685 26.7482C60.0964 26.3806 60.3533 26.0468 60.6393 25.7469C60.9254 25.447 61.2553 25.1965 61.6292 24.9953L61.6903 22.139L51.9999 19.5425ZM51.9999 19.5425V24.6399L49.9431 24.0887C49.9602 23.6589 49.9093 23.2365 49.7904 22.8217C49.6715 22.4068 49.5074 22.0148 49.298 21.6457L50.6618 19.1839L51.9999 19.5425ZM51.9999 26.7068L49.4525 26.0243C49.2169 26.4679 48.9187 26.8511 48.5579 27.1736C48.1971 27.4962 47.7901 27.7533 47.3369 27.9448L44.9013 42.1465C44.8772 42.2801 44.9018 42.4064 44.975 42.5254C45.0483 42.6442 45.1557 42.7227 45.2974 42.7606L51.9999 44.5566L51.9999 26.7068ZM150.658 49.8391L151.421 50.28L151.676 49.8391H150.658ZM308 41.492V44.0155L314.86 45.8536C315.488 46.0218 316.1 45.9336 316.697 45.5888C317.294 45.2441 317.677 44.7578 317.845 44.13L323.313 23.7248C323.481 23.097 323.393 22.4845 323.048 21.8874C322.703 21.2904 322.217 20.9077 321.589 20.7395L308 17.0983V19.6218L294.274 15.9441L293.128 20.2213L308 24.2061V29.6316L291.772 25.2834L288.807 36.3492L308 41.492ZM308 41.492L315.491 43.4991L318.456 32.4332L308 29.6316V41.492ZM308 24.2061V19.6218L320.958 23.0939L319.812 27.3712L308 24.2061ZM109.023 12.9482C108.786 13.3593 108.451 13.6228 108.019 13.7386C107.586 13.8545 107.165 13.7937 106.753 13.5564C106.342 13.319 106.079 12.9842 105.963 12.5518C105.847 12.1195 105.908 11.6978 106.145 11.2866C106.383 10.8755 106.718 10.612 107.15 10.4962C107.582 10.3803 108.004 10.4411 108.415 10.6785C108.826 10.9158 109.09 11.2507 109.205 11.683C109.321 12.1153 109.261 12.5371 109.023 12.9482ZM93.7786 17.337L91.7521 17.8801L90.9376 14.8403L87.8978 15.6548L87.3548 13.6282L90.3946 12.8137L89.58 9.77392L91.6066 9.23091L92.4211 12.2707L95.4609 11.4562L96.0039 13.4827L92.9641 14.2972L93.7786 17.337ZM140.349 39.1424C139.282 38.5263 138.586 37.6409 138.262 36.4861C137.938 35.3313 138.077 34.2318 138.68 33.1877L145.464 21.4372L162.859 31.4801C163.309 31.74 163.605 32.1252 163.747 32.6358C163.889 33.1464 163.832 33.6227 163.577 34.0647L161.472 37.7102C161.217 38.1522 160.833 38.4394 160.32 38.5718C159.807 38.7043 159.325 38.6405 158.875 38.3806L156.503 37.0114L153.703 41.8613C153.1 42.9055 152.218 43.5758 151.055 43.8723C149.893 44.1689 148.779 44.0091 147.712 43.3931L140.349 39.1424ZM141.088 37.8621L148.451 42.1128C149.126 42.5025 149.858 42.5952 150.649 42.3911C151.44 42.187 152.023 41.7595 152.399 41.1084L158.444 30.6382L146.029 23.4703L139.984 33.9406C139.608 34.5916 139.532 35.3122 139.757 36.1025C139.981 36.8927 140.425 37.4793 141.088 37.8621ZM157.242 35.7311L159.614 37.1004C159.717 37.1599 159.821 37.1763 159.925 37.1495C160.029 37.1226 160.11 37.0586 160.168 36.9573L162.273 33.3118C162.331 33.2105 162.346 33.1082 162.318 33.0048C162.289 32.9014 162.223 32.8199 162.12 32.7604L159.748 31.3911L157.242 35.7311ZM242.149 41.8667C241.06 42.2234 240.001 42.1412 238.971 41.6198C237.942 41.0985 237.249 40.2934 236.892 39.2045L234.297 31.2854C233.941 30.1965 234.023 29.1374 234.544 28.1079C235.066 27.0784 235.871 26.3853 236.96 26.0285L248.838 22.1364C249.927 21.7797 250.986 21.8619 252.016 22.3833C253.045 22.9046 253.738 23.7097 254.095 24.7986L256.69 32.7177C257.047 33.8066 256.964 34.8658 256.443 35.8952C255.922 36.9247 255.116 37.6178 254.028 37.9746L242.149 41.8667ZM238.338 30.2355L250.217 26.3435C250.695 26.1867 251.169 26.1136 251.638 26.1243C252.108 26.1349 252.553 26.2264 252.975 26.3988L252.61 25.2851C252.383 24.5922 251.952 24.0849 251.317 23.7632C250.682 23.4415 250.018 23.3942 249.325 23.6213L237.446 27.5133C236.753 27.7404 236.246 28.1715 235.924 28.8067C235.602 29.4419 235.555 30.106 235.782 30.7989L236.147 31.9125C236.385 31.5239 236.69 31.1865 237.062 30.9002C237.434 30.6138 237.859 30.3923 238.338 30.2355ZM237.04 34.3877L249.777 33.3658C249.903 33.361 250.024 33.3259 250.14 33.2606C250.256 33.1953 250.341 33.1079 250.397 32.9984L253.27 28.3849C252.931 28.0758 252.534 27.8678 252.079 27.7612C251.624 27.6546 251.165 27.6769 250.703 27.8283L238.824 31.7204C238.247 31.9095 237.794 32.2545 237.464 32.7551C237.135 33.2558 236.994 33.8 237.04 34.3877Z" fill="url(#paint4_linear_83_246)"/>
<path fill-rule="evenodd" clip-rule="evenodd" d="M52 49.8391H0V195.839H6.36619L6.12092 196.272C5.57803 197.23 5.45263 198.239 5.74471 199.298C6.03678 200.358 6.66328 201.17 7.6242 201.736L14.2546 205.636C15.2155 206.201 16.2193 206.348 17.266 206.076C18.3127 205.804 19.1075 205.189 19.6504 204.23L22.1721 199.78L24.3079 201.037C24.7133 201.275 25.1471 201.334 25.6092 201.212C26.0713 201.091 26.4172 200.827 26.647 200.422L28.5425 197.077C28.7602 196.692 28.8175 196.28 28.7142 195.839H52V49.8391ZM27.1608 195.839H28.7142C28.712 195.83 28.7097 195.82 28.7074 195.811C28.7036 195.796 28.6997 195.781 28.6956 195.766C28.5678 195.297 28.3012 194.944 27.8958 194.705L12.2305 185.49L6.36619 195.839H7.93204L7.29531 196.963C6.95682 197.56 6.88867 198.221 7.09086 198.946C7.29305 199.672 7.69272 200.21 8.28987 200.561L14.9202 204.461C15.528 204.819 16.188 204.904 16.9001 204.717C17.6122 204.529 18.1375 204.137 18.476 203.54L22.8397 195.839H24.4055L22.8378 198.606L24.9736 199.862C25.0665 199.917 25.1597 199.932 25.2533 199.907C25.3469 199.882 25.42 199.824 25.4726 199.731L27.3681 196.386C27.4208 196.293 27.4342 196.199 27.4083 196.104C27.3824 196.009 27.323 195.935 27.2301 195.88L27.1608 195.839ZM27.1608 195.839L25.0944 194.624L24.4055 195.839H27.1608ZM22.8397 195.839H7.93204L12.7392 187.356L23.92 193.933L22.8397 195.839ZM8.63157 68.6531C9.01688 69.7614 9.72668 70.5667 10.7609 71.0692L22.0438 76.5509C23.0781 77.0533 24.1391 77.1083 25.2268 76.7157C26.3145 76.3231 27.105 75.6 27.5982 74.5462L31.185 66.8825C31.6782 65.8287 31.7321 64.7477 31.3468 63.6395C30.9615 62.5312 30.2517 61.7259 29.2174 61.2234L17.9345 55.7417C16.9003 55.2393 15.8393 55.1843 14.7515 55.5769C13.6638 55.9695 12.8734 56.6926 12.3802 57.7464L8.79338 65.4101C8.30019 66.4639 8.24626 67.5449 8.63157 68.6531ZM27.3119 65.2947L16.029 59.8131C15.5746 59.5923 15.1139 59.4567 14.6471 59.4063C14.1802 59.3558 13.7266 59.3902 13.2861 59.5093L13.7905 58.4316C14.1044 57.761 14.5969 57.3046 15.268 57.0624C15.9392 56.8202 16.6038 56.8589 17.262 57.1787L28.5449 62.6603C29.2031 62.9801 29.651 63.4819 29.8888 64.1657C30.1265 64.8495 30.0885 65.5267 29.7746 66.1972L29.2702 67.275C29.0838 66.8513 28.8245 66.4705 28.4921 66.1327C28.1598 65.7948 27.7664 65.5155 27.3119 65.2947ZM22.1479 70.164L12.2246 61.9624C12.5965 61.4965 13.0744 61.1946 13.6582 61.0569C14.2419 60.9192 14.808 60.9836 15.3565 61.2501L26.6394 66.7317C27.0782 66.9449 27.4255 67.2508 27.6813 67.6494C27.9371 68.048 28.0809 68.4804 28.1128 68.9466L22.8499 70.3286C22.7341 70.3704 22.6119 70.3747 22.4832 70.3415C22.3544 70.3084 22.2427 70.2492 22.1479 70.164ZM2.32425 202.972L2.98993 201.797L18.2611 210.78L17.5954 211.955L2.32425 202.972ZM9.46822 152.909C9.87314 153.546 10.4188 153.938 11.1052 154.088L40.2783 160.433C40.9648 160.582 41.6203 160.451 42.2451 160.038C42.8698 159.625 43.2554 159.069 43.4019 158.37L47.7979 137.389C47.9445 136.69 47.8153 136.022 47.4104 135.385C47.0054 134.749 46.4598 134.356 45.7733 134.207L38.0511 132.527L38.9669 128.156C39.1134 127.457 38.9842 126.789 38.5793 126.152C38.1744 125.516 37.6287 125.123 36.9423 124.973L28.362 123.107C27.6755 122.958 27.02 123.09 26.3953 123.502C25.7705 123.915 25.3849 124.471 25.2384 125.17L24.3225 129.541L16.6002 127.861C15.9138 127.712 15.2582 127.844 14.6335 128.256C14.0088 128.669 13.6232 129.225 13.4766 129.924L9.08064 150.905C8.93411 151.605 9.0633 152.273 9.46822 152.909ZM40.8278 157.81L11.6547 151.465L16.0507 130.484L45.2238 136.829L40.8278 157.81ZM35.477 131.967L26.8966 130.101L27.8125 125.73L36.3928 127.596L35.477 131.967Z" fill="url(#paint5_linear_83_246)"/>
<path d="M5.45312 106.923C5.89284 106.661 6.46007 106.989 7.15481 107.909C7.56029 108.589 7.61276 109.735 7.31221 111.349L7.35624 111.423C7.93235 112.388 8.65806 113.454 9.53336 114.621L9.40933 114.864L9.35398 114.897C9.09569 115.051 8.82526 114.891 8.54271 114.418L8.13501 113.892L8.16567 113.786L8.13264 113.73L6.71511 111.805L6.55773 111.374L5.75961 110.036L5.35811 109.238L5.30276 109.271C4.86181 108.028 4.91193 107.246 5.45312 106.923ZM6.19178 109.597L6.87981 110.75L6.93516 110.717C7.21271 109.722 7.10196 108.806 6.6029 107.969C6.12921 107.56 5.82626 107.395 5.69403 107.474L5.63407 107.509C5.46096 107.988 5.64686 108.684 6.19178 109.597ZM8.18195 103.888C8.98077 103.682 9.5233 103.819 9.80952 104.299L9.92236 104.488C10.4893 105.438 10.4561 106.35 9.82263 107.224L9.38906 107.483L9.46887 107.617C9.92389 108.379 10.4304 108.798 10.9884 108.874L11.1868 108.756C11.4266 108.613 11.5637 108.07 11.5979 107.128L11.6863 107.15L11.7555 107.109C12.0363 108.272 11.9031 109.016 11.3557 109.343C10.8576 109.64 9.93156 109.011 8.57761 107.454C8.50996 107.495 8.40515 107.413 8.26318 107.21C8.35648 106.975 8.17935 106.333 7.73179 105.282C7.72748 104.534 7.87753 104.069 8.18195 103.888ZM8.82538 106.706C8.98705 106.893 9.11554 106.958 9.21086 106.901L9.59831 106.67C9.96564 106.126 9.92913 105.484 9.48879 104.746L9.45026 104.682C9.13432 104.299 8.81338 104.205 8.48744 104.399C7.977 104.704 8.08965 105.473 8.82538 106.706ZM12.4719 101.697L12.661 101.584L13.0734 101.688L13.1505 101.817L13.091 102.022L12.7388 102.144C12.595 103.448 12.7626 104.501 13.2414 105.303L13.8497 106.322L14.3307 106.992C14.4334 107.165 14.3803 107.313 14.1712 107.438L14.2042 107.493C13.9965 107.53 13.8744 107.517 13.8377 107.455L13.4193 106.754C12.043 104.811 11.3056 103.869 11.2072 103.927C11.1392 103.618 11.1467 103.438 11.2297 103.389L11.2943 103.35C11.5069 103.315 11.6829 103.414 11.8223 103.648L12.2406 104.349L12.3052 104.311C12.1779 103.14 12.2335 102.269 12.4719 101.697ZM14.8441 97.5919C15.0839 97.4488 15.2939 97.4653 15.474 97.6414L15.6146 98.1704C18.2933 102.422 19.647 104.471 19.6756 104.316L19.5589 104.592C19.3377 104.62 19.221 104.637 19.2087 104.645L17.5608 102.019L17.4669 101.988L17.4023 102.026C18.21 103.967 18.3586 105.089 17.8482 105.394L17.7237 105.468C17.2132 105.773 16.6534 105.415 16.0443 104.394C15.6021 103.653 15.5329 102.712 15.8366 101.572C16.3505 101.077 16.5103 100.667 16.3158 100.341L15.7846 99.4512L14.7776 98.0569C14.7437 97.8186 14.7659 97.6636 14.8441 97.5919ZM16.4049 103.835L16.7819 104.466C16.9783 104.796 17.2143 104.947 17.4901 104.92L17.5455 104.887C17.7976 104.736 17.5372 103.622 16.7642 101.544L16.6703 101.512L16.4167 101.664C16.007 102.437 16.0031 103.161 16.4049 103.835ZM18.5536 97.699C19.3524 97.4933 19.895 97.6304 20.1812 98.1101L20.294 98.2992C20.861 99.2493 20.8277 100.162 20.1943 101.036L19.7607 101.294L19.8405 101.428C20.2956 102.191 20.8021 102.61 21.3601 102.685L21.5584 102.567C21.7983 102.424 21.9353 101.882 21.9696 100.94L22.0579 100.962L22.1271 100.921C22.408 102.083 22.2748 102.828 21.7274 103.154C21.2293 103.452 20.3032 102.822 18.9493 101.266C18.8816 101.306 18.7768 101.225 18.6348 101.022C18.7281 100.787 18.551 100.144 18.1035 99.0934C18.0991 98.3454 18.2492 97.8806 18.5536 97.699ZM19.1971 100.517C19.3587 100.704 19.4872 100.77 19.5825 100.713L19.97 100.481C20.3373 99.9371 20.3008 99.2959 19.8605 98.5579L19.8219 98.4933C19.506 98.1106 19.1851 98.0165 18.8591 98.2109C18.3487 98.5155 18.4613 99.2843 19.1971 100.517ZM23.3885 95.6459L23.5929 95.7054L23.7711 96.287L23.8894 96.4854L24.2503 96.9643C25.448 99.3561 25.7732 100.715 25.2259 101.042C24.6663 101.376 23.6127 100.532 22.0652 98.512L21.8395 98.1338C21.6469 97.8109 21.6186 97.5714 21.7547 97.4151L21.8885 97.3353L22.1519 97.347L22.3469 97.8311L22.724 98.463C23.2285 99.3086 23.917 100.026 24.7894 100.614L24.9232 100.534C25.1468 100.238 24.8552 99.3199 24.0484 97.779L23.6631 97.1333C23.4833 96.832 23.3014 96.6215 23.1175 96.5019C22.956 96.2313 23.0464 95.946 23.3885 95.6459ZM30.6256 88.1754C30.8654 88.0323 31.0754 88.0488 31.2555 88.2249L31.3961 88.7539C34.0748 93.0057 35.4285 95.0543 35.4571 94.8996L35.3403 95.1756C35.1192 95.2033 35.0025 95.2209 34.9902 95.2282L33.3422 92.6026L33.2484 92.5711L33.1838 92.6096C33.9915 94.5503 34.1401 95.6729 33.6297 95.9774L33.5051 96.0518C32.9947 96.3563 32.4349 95.9982 31.8258 94.9773C31.3836 94.2362 31.3143 93.2956 31.618 92.1553C32.132 91.661 32.2918 91.2509 32.0973 90.9249L31.5661 90.0347L30.559 88.6404C30.5252 88.4021 30.5474 88.2471 30.6256 88.1754ZM32.1864 94.4181L32.5634 95.05C32.7597 95.379 32.9958 95.5301 33.2716 95.5031L33.3269 95.4701C33.5791 95.3196 33.3187 94.2053 32.5457 92.1272L32.4518 92.0957L32.1981 92.247C31.7885 93.021 31.7846 93.7447 32.1864 94.4181ZM34.3895 87.881L34.4449 87.848C34.9492 87.5471 35.8162 88.3223 37.046 90.1738L37.734 91.3269L38.2188 91.9821L38.3037 92.2816L38.7169 92.8169L38.5901 93.0552C38.348 93.1246 38.1554 93.0394 38.0123 92.7995L36.7546 90.6916C35.8684 89.2064 35.237 88.4907 34.8604 88.5444L34.8051 88.5775C34.4894 89.0827 34.7689 90.1835 35.6435 91.88L36.7086 93.665L36.9319 93.882C36.9932 94.1873 36.9823 94.3648 36.8993 94.4143C36.6871 94.5409 36.5066 94.5319 36.3577 94.3872L35.4031 92.6301L33.4994 89.8694L33.2738 89.4912L33.3761 89.0861C33.5819 89.0467 33.7041 89.0593 33.7426 89.1239L34.2477 90.1172L34.3508 90.1432L34.4754 90.0689C34.1029 89.4447 34.0743 88.7154 34.3895 87.881ZM38.9318 86.1027C39.0227 86.0734 39.1715 86.1306 39.3781 86.2742C39.4 86.6114 39.8385 88.2198 40.6936 91.0995C40.7325 91.535 40.6799 91.8312 40.5358 91.988C40.2837 92.1385 39.8026 91.6187 39.0925 90.4287L37.2325 87.8984C37.1404 87.6114 37.1913 87.4101 37.385 87.2945L37.7255 87.4354L37.9756 87.9804C39.1812 89.9588 39.8793 90.8912 40.0699 90.7775C39.6161 88.7591 39.2489 87.5146 38.9681 87.0442L38.5981 86.5707C38.676 86.3449 38.7872 86.1889 38.9318 86.1027ZM39.7502 81.1548L39.884 81.075C40.2683 80.8456 40.6523 81.0523 41.0357 81.695C41.2357 82.0301 41.4217 83.0721 41.5937 84.8208L41.8229 85.6348L42.1999 86.2667C42.5768 86.8424 42.8316 87.1261 42.9642 87.1178C43.0135 87.3261 42.986 87.5176 42.8818 87.6924L42.8172 87.7309C42.7133 87.7595 42.5627 87.6993 42.3653 87.5502L42.2042 87.1335C41.7015 86.2909 41.2302 85.7945 40.7903 85.6442C40.6893 85.4751 40.7932 85.0691 41.1018 84.4263C41.0467 83.3626 40.9421 82.7015 40.7879 82.4432L40.5237 82.0005L40.2071 81.9205C40.0871 81.992 40.1423 82.4199 40.3725 83.204L40.2632 83.4506L39.8967 83.4129C39.5161 82.0763 39.4673 81.3236 39.7502 81.1548ZM43.6145 88.6374L43.8036 88.5246C44.0223 88.5067 44.1821 88.5823 44.283 88.7515C44.3839 88.9206 44.3083 89.0804 44.0561 89.2308L44.0919 89.2908C43.8818 89.3369 43.6902 89.3094 43.5173 89.2083L43.4788 89.1437L43.6145 88.6374Z" fill="white"/>
<path fill-rule="evenodd" clip-rule="evenodd" d="M334.329 41.3606C334.346 40.8678 334.474 40.4174 334.712 40.0096C334.95 39.6017 335.239 39.2279 335.578 38.888C336.394 38.0723 337.367 37.6602 338.497 37.6517C339.627 37.6432 340.6 38.0468 341.416 38.8625C342.231 39.6782 342.635 40.6511 342.626 41.7812C342.618 42.9112 342.206 43.8841 341.39 44.6998C341.05 45.0396 340.676 45.3285 340.269 45.5664C339.861 45.8043 339.41 45.9318 338.918 45.9488L334.329 41.3606ZM324.133 62.3645C323.046 61.2769 322.498 59.9641 322.489 58.4262C322.481 56.8883 323.029 55.5671 324.133 54.4625L323.267 53.5958L326.364 49.839H329.154L326.173 53.4429L326.835 54.1056L331.993 49.839H335.381L326.682 57.0115L325.663 55.9919C325 56.6547 324.669 57.4619 324.669 58.4135C324.669 59.3651 325 60.1723 325.663 60.8351C326.325 61.4978 327.128 61.8249 328.072 61.8164C329.015 61.8079 329.818 61.4723 330.48 60.8096L341.451 49.839H344.51L344.5 49.8488L332.01 62.339C330.905 63.4435 329.588 63.9958 328.059 63.9958C326.529 63.9958 325.221 63.452 324.133 62.3645ZM349.333 49.839C348.672 49.1828 347.868 48.8547 346.922 48.8547C345.975 48.8547 345.171 49.1828 344.51 49.839H349.333ZM351.98 49.839C351.71 49.2943 351.341 48.7877 350.873 48.3194C349.768 47.2148 348.451 46.6625 346.922 46.6625C345.392 46.6625 344.075 47.2148 342.971 48.3194L341.451 49.839H335.381L338.306 47.4272L332.851 41.9723L326.364 49.839H308V195.839H316.842L315.281 213.968C315.266 214.327 315.346 214.637 315.521 214.898C315.696 215.159 315.92 215.352 316.194 215.475C316.468 215.598 316.76 215.638 317.072 215.595C317.383 215.552 317.675 215.391 317.947 215.111L336.249 195.839H360V49.839H351.98ZM332.098 195.839H336.249L339.91 191.983L333.164 190.65L330.641 186.994L333.019 181.704C333.169 181.369 333.443 181.127 333.839 180.976C334.236 180.826 334.617 180.832 334.982 180.996C335.377 181.174 335.649 181.443 335.798 181.802C335.947 182.161 335.933 182.539 335.755 182.934L335.468 183.572L338.204 184.802L338.491 184.164C338.97 183.1 338.988 182.002 338.546 180.872C338.104 179.741 337.305 178.916 336.15 178.397C335.025 177.891 333.886 177.845 332.731 178.258C331.577 178.671 330.761 179.41 330.283 180.474L327.905 185.764L323.496 186.304L318.02 182.143L316.842 195.839H319.842L319.008 205.556L323.376 195.839H326.665L321.744 206.786L332.098 195.839ZM332.098 195.839H326.665L329.206 190.186L331.213 193.281L333.968 193.862L332.098 195.839ZM323.376 195.839L326.47 188.956L322.802 189.555L320.535 187.769L319.842 195.839H323.376ZM351.98 49.839H349.333L349.343 49.8488C350.006 50.5115 350.337 51.3187 350.337 52.2704C350.337 53.222 350.006 54.0292 349.343 54.6919L332.902 71.1331L334.431 72.6625L350.873 56.2213C351.977 55.1168 352.529 53.7998 352.529 52.2704C352.529 51.3894 352.346 50.579 351.98 49.839ZM331.993 49.839H329.154L333.004 45.1841L334.38 46.5606L335.094 47.2743L331.993 49.839ZM314.665 121.476C313.989 121.657 313.452 121.456 313.054 120.872C312.656 120.289 312.671 119.698 313.097 119.101L326.751 100.897L326.039 98.2404C325.936 97.854 325.982 97.4793 326.178 97.1162C326.374 96.7531 326.665 96.5197 327.051 96.4162C328.155 96.1551 328.983 95.5448 329.537 94.5854C330.091 93.6261 330.222 92.599 329.928 91.5043C329.644 90.4418 329.021 89.6336 328.062 89.0797C327.103 88.5258 326.092 88.3912 325.029 88.6759C323.967 88.9606 323.159 89.5826 322.605 90.542C322.051 91.5014 321.916 92.5123 322.201 93.5748L319.303 94.3513C318.803 92.4838 319.036 90.7132 320.002 89.0394C320.968 87.3656 322.385 86.2785 324.253 85.7781C326.12 85.2777 327.887 85.4946 329.552 86.4288C331.217 87.363 332.3 88.7638 332.8 90.6312C333.223 92.2089 333.099 93.7432 332.429 95.2342C331.758 96.7251 330.711 97.9031 329.286 98.7679L329.649 100.12L350.575 109.059C351.243 109.363 351.551 109.867 351.498 110.571C351.445 111.276 351.081 111.718 350.405 111.9L314.665 121.476ZM318.236 117.413L345.281 110.166L328.873 103.02L318.236 117.413ZM339.432 155.854L339.757 157.07L345.794 155.452C346.118 155.366 346.369 155.168 346.547 154.86C346.725 154.552 346.771 154.235 346.684 153.911L344.415 145.444C344.145 144.435 343.701 143.534 343.084 142.742C342.467 141.95 341.745 141.306 340.917 140.812C340.089 140.317 339.181 139.996 338.193 139.848C337.206 139.701 336.207 139.762 335.197 140.033C334.187 140.303 333.286 140.751 332.495 141.375C331.704 142 331.068 142.735 330.585 143.58C330.102 144.426 329.788 145.347 329.643 146.343C329.497 147.34 329.56 148.343 329.83 149.352L331.48 155.51C331.567 155.834 331.764 156.085 332.073 156.263C332.381 156.441 332.697 156.487 333.021 156.4L336.019 155.596L334.412 149.6L331.414 150.404L331.045 149.026C330.597 147.352 330.811 145.749 331.689 144.218C332.567 142.688 333.844 141.698 335.518 141.249C337.193 140.8 338.78 141.023 340.278 141.917C341.777 142.811 342.751 144.095 343.2 145.77L343.569 147.147L340.571 147.95L342.177 153.946L345.175 153.143L345.468 154.237L339.432 155.854ZM334.478 154.707L332.695 155.184L331.74 151.619L333.523 151.141L334.478 154.707ZM344.85 151.928L343.067 152.405L342.112 148.84L343.894 148.362L344.85 151.928Z" fill="#7C18C9"/>
<path fill-rule="evenodd" clip-rule="evenodd" d="M256 195.839V239.839L257.884 237.7C263.959 230.806 272.705 226.856 281.894 226.856H285.586V209.544L291.095 218.408C292.071 219.978 293.995 220.675 295.75 220.094L308 216.036V195.839H256ZM272.123 210.85L272.393 211.818L277.396 210.529C277.665 210.46 277.873 210.303 278.021 210.057C278.168 209.811 278.206 209.559 278.134 209.301L276.253 202.552C276.029 201.748 275.661 201.03 275.15 200.398C274.639 199.767 274.04 199.254 273.354 198.86C272.667 198.466 271.915 198.21 271.096 198.092C270.277 197.975 269.449 198.023 268.612 198.239C267.775 198.455 267.029 198.812 266.373 199.309C265.717 199.807 265.189 200.393 264.789 201.067C264.389 201.741 264.129 202.475 264.008 203.269C263.888 204.063 263.939 204.863 264.164 205.667L265.531 210.575C265.603 210.833 265.767 211.034 266.023 211.175C266.278 211.317 266.54 211.354 266.809 211.284L269.294 210.644L267.962 205.865L265.477 206.505L265.171 205.407C264.799 204.073 264.977 202.795 265.705 201.575C266.433 200.355 267.491 199.566 268.879 199.209C270.267 198.851 271.582 199.029 272.824 199.741C274.067 200.453 274.874 201.477 275.246 202.812L275.552 203.91L273.067 204.55L274.398 209.329L276.883 208.689L277.126 209.56L272.123 210.85ZM268.016 209.935L266.539 210.316L265.747 207.474L267.225 207.093L268.016 209.935ZM276.614 207.72L275.136 208.101L274.344 205.259L275.822 204.878L276.614 207.72Z" fill="#7C18C9"/>
<path fill-rule="evenodd" clip-rule="evenodd" d="M52.0001 233.899V240.839H57.5989L52.7076 244.194L32.9052 215.323L46.5809 205.943L52.0001 213.844L52.0001 232.591C51.973 232.541 51.9428 232.492 51.9092 232.443C51.6865 232.118 51.3914 231.923 51.024 231.859C50.6567 231.794 50.3106 231.873 49.9858 232.096C49.661 232.319 49.4663 232.614 49.4018 232.981C49.3372 233.348 49.4163 233.694 49.6391 234.019C49.8619 234.344 50.1569 234.539 50.5243 234.603C50.8916 234.668 51.2377 234.589 51.5625 234.366C51.7532 234.235 51.8991 234.079 52.0001 233.899ZM52.0001 233.899C52.0711 233.772 52.1199 233.632 52.1465 233.481C52.2014 233.169 52.1525 232.872 52.0001 232.591V233.899ZM52.0001 208.957L48.8601 204.38C48.4302 203.753 47.839 203.369 47.0865 203.229C46.334 203.089 45.6443 203.234 45.0175 203.664L31.3419 213.044C30.7151 213.474 30.3316 214.065 30.1914 214.817C30.0512 215.57 30.196 216.26 30.6259 216.886L50.4284 245.757C50.8583 246.384 51.4495 246.768 52.202 246.908C52.9545 247.048 53.6442 246.903 54.271 246.473L62.4853 240.839L139.026 240.839L152.593 247.62C153.219 247.933 153.785 247.843 154.292 247.351C154.799 246.859 154.903 246.278 154.605 245.607L152.35 240.839L256 240.839V195.839L52.0001 195.839V208.957ZM148.94 240.839H152.35L144.875 225.036L145.501 223.784C147.141 224.082 148.706 223.895 150.196 223.224C151.687 222.553 152.797 221.487 153.528 220.026C154.392 218.297 154.511 216.53 153.885 214.727C153.258 212.923 152.08 211.589 150.351 210.725C148.622 209.86 146.84 209.734 145.007 210.345C143.173 210.957 141.824 212.127 140.96 213.857L143.643 215.198C144.135 214.214 144.907 213.547 145.958 213.196C147.008 212.846 148.026 212.916 149.01 213.408C149.994 213.9 150.661 214.671 151.011 215.722C151.362 216.773 151.291 217.791 150.799 218.775C150.293 219.788 149.514 220.47 148.463 220.821C147.412 221.171 146.387 221.078 145.388 220.542C145.031 220.363 144.658 220.344 144.27 220.486C143.883 220.628 143.6 220.878 143.421 221.235L142.191 223.695L119.898 228.26C119.183 228.424 118.781 228.857 118.691 229.557C118.602 230.258 118.87 230.765 119.496 231.078L139.026 240.839H145.737L149.909 242.924L148.94 240.839ZM148.94 240.839H145.737L124.863 230.406L142.371 226.692L148.94 240.839ZM52.0001 208.957V213.844L66.3833 234.814L57.5989 240.839H62.4853L67.9466 237.093C68.5734 236.663 68.9569 236.072 69.0971 235.319C69.2373 234.567 69.0925 233.877 68.6626 233.25L52.0001 208.957ZM49.4254 218.397C49.1729 219.766 48.4657 220.849 47.3037 221.646C46.1417 222.443 44.8761 222.716 43.5069 222.463C42.1376 222.211 41.0545 221.503 40.2575 220.341C39.4605 219.179 39.1882 217.914 39.4408 216.545C39.6933 215.175 40.4005 214.092 41.5625 213.295C42.7245 212.498 43.9901 212.226 45.3593 212.478C46.7286 212.731 47.8117 213.438 48.6087 214.6C49.4057 215.762 49.6779 217.028 49.4254 218.397ZM44.0141 219.751C44.6301 219.862 45.2063 219.733 45.7425 219.366C46.2788 218.998 46.6024 218.506 46.7133 217.89C46.8242 217.274 46.6957 216.698 46.3279 216.161C45.9601 215.625 45.4682 215.302 44.8521 215.191C44.2361 215.08 43.6599 215.208 43.1237 215.576C42.5874 215.944 42.2638 216.436 42.1529 217.052C42.042 217.668 42.1704 218.244 42.5383 218.78C42.9061 219.317 43.398 219.64 44.0141 219.751ZM49.0198 228.922C48.9553 229.29 48.7606 229.585 48.4358 229.807C48.111 230.03 47.7649 230.109 47.3976 230.045C47.0302 229.98 46.7352 229.786 46.5124 229.461C46.2896 229.136 46.2105 228.79 46.2751 228.423C46.3396 228.055 46.5343 227.76 46.8591 227.537C47.1839 227.315 47.53 227.235 47.8973 227.3C48.2647 227.365 48.5598 227.559 48.7825 227.884C49.0053 228.209 49.0844 228.555 49.0198 228.922ZM55.0979 224.753C55.0333 225.121 54.8386 225.416 54.5138 225.639C54.1891 225.861 53.843 225.94 53.4756 225.876C53.1083 225.811 52.8132 225.617 52.5904 225.292C52.3677 224.967 52.2886 224.621 52.3531 224.254C52.4177 223.886 52.6124 223.591 52.9372 223.368C53.262 223.146 53.608 223.067 53.9754 223.131C54.3428 223.196 54.6378 223.39 54.8606 223.715C55.0834 224.04 55.1625 224.386 55.0979 224.753ZM58.2246 229.312C58.16 229.679 57.9653 229.974 57.6405 230.197C57.3158 230.42 56.9697 230.499 56.6023 230.434C56.235 230.37 55.9399 230.175 55.7171 229.85C55.4944 229.526 55.4153 229.179 55.4798 228.812C55.5444 228.445 55.7391 228.15 56.0639 227.927C56.3887 227.704 56.7347 227.625 57.1021 227.69C57.4695 227.754 57.7645 227.949 57.9873 228.274C58.2101 228.598 58.2892 228.945 58.2246 229.312ZM55.2732 238.039C55.2087 238.407 55.014 238.702 54.6892 238.925C54.3644 239.147 54.0183 239.226 53.651 239.162C53.2836 239.097 52.9886 238.903 52.7658 238.578C52.543 238.253 52.4639 237.907 52.5285 237.54C52.593 237.172 52.7877 236.877 53.1125 236.654C53.4373 236.432 53.7834 236.353 54.1507 236.417C54.5181 236.482 54.8132 236.676 55.0359 237.001C55.2587 237.326 55.3378 237.672 55.2732 238.039ZM61.3513 233.87C61.2867 234.238 61.092 234.533 60.7672 234.756C60.4425 234.978 60.0964 235.057 59.729 234.993C59.3617 234.928 59.0666 234.734 58.8438 234.409C58.6211 234.084 58.542 233.738 58.6065 233.371C58.6711 233.003 58.8658 232.708 59.1906 232.485C59.5154 232.263 59.8614 232.184 60.2288 232.248C60.5962 232.313 60.8912 232.507 61.114 232.832C61.3368 233.157 61.4159 233.503 61.3513 233.87ZM86.8989 207.109C86.811 207.432 86.8064 207.763 86.885 208.102L90.8596 210.397C91.1932 210.295 91.4775 210.126 91.7126 209.889C91.9477 209.651 92.1502 209.386 92.3202 209.091C92.7282 208.385 92.8316 207.645 92.6305 206.871C92.4295 206.097 91.9756 205.507 91.269 205.099C90.5624 204.691 89.8239 204.593 89.0534 204.806C88.2829 205.018 87.6936 205.478 87.2857 206.185C87.1157 206.479 86.9868 206.787 86.8989 207.109ZM81.9199 221.929C82.2072 222.978 82.822 223.775 83.7641 224.319C84.7062 224.863 85.6997 224.995 86.7446 224.715C87.7895 224.435 88.5882 223.816 89.1406 222.86L95.3874 212.04C95.7189 211.466 96.2097 211.092 96.8598 210.917C97.51 210.743 98.1221 210.822 98.6962 211.153C99.2703 211.485 99.6445 211.975 99.8187 212.626C99.9929 213.276 99.9143 213.888 99.5828 214.462L91.36 228.704L92.6849 229.469L100.908 215.227C101.46 214.27 101.596 213.269 101.316 212.224C101.036 211.179 100.418 210.381 99.4611 209.828C98.5043 209.276 97.5034 209.14 96.4585 209.42C95.4136 209.7 94.615 210.318 94.0625 211.275L87.8157 222.095C87.4843 222.669 86.9971 223.045 86.3544 223.223C85.7116 223.402 85.1031 223.325 84.529 222.994C83.9549 222.663 83.5807 222.172 83.4065 221.522C83.2323 220.871 83.3109 220.259 83.6424 219.685L84.5256 220.195L90.7123 211.519L85.9869 208.791L81.5668 218.487L82.3175 218.92C81.7651 219.877 81.6325 220.88 81.9199 221.929ZM84.0982 218.182L83.5241 217.85L86.6794 210.957L87.8717 211.646L88.49 212.003L84.0982 218.182Z" fill="#7C18C9"/>
<path d="M229.802 124.471C229.954 124.558 230.125 124.856 230.316 125.363L230.168 125.619L230.043 125.546L230.002 125.616C229.784 125.2 229.567 124.931 229.353 124.807L229.028 124.619C227.87 124.604 226.951 126.91 226.269 131.535L226.151 131.889C225.657 132.745 224.756 133.171 223.447 133.168L222.914 133.028C222.38 132.476 222.248 131.968 222.517 131.503C222.686 131.323 222.808 131.255 222.883 131.298L223.018 131.376C222.838 132.009 222.828 132.371 222.986 132.462C223.972 133.031 224.878 132.754 225.705 131.631L225.887 131.315C226.492 126 227.636 123.65 229.318 124.266L229.802 124.471ZM234.833 127.561C235.034 127.814 235.076 128.043 234.957 128.247L231.545 135.189L231.284 135.641C231.157 135.861 231.02 135.951 230.873 135.912L230.739 135.834L230.62 135.598L231.246 134.676L231.361 134.476C232.432 132.621 233.253 130.898 233.826 129.306L233.765 129.271C233.039 129.926 231.944 131.179 230.479 133.029L229.98 132.99C229.745 132.854 229.916 132.213 230.495 131.067C230.849 129.365 230.996 128.42 230.935 128.232L230.87 128.194L230.379 129.195L229.708 130.358C228.148 133.059 227.238 134.334 226.978 134.184L226.787 134.074L226.91 133.71L228.689 131.221L228.623 131.183L228.723 131.16L229.207 130.323C230.387 128.279 230.992 127.084 231.022 126.738C231.221 126.588 231.368 126.533 231.465 126.572L231.656 126.682C231.863 126.818 231.75 127.609 231.316 129.054C231.296 129.584 231.108 130.449 230.754 131.65L230.954 131.766L234.048 128.318L234.159 128.127L234.328 127.704C234.427 127.534 234.581 127.509 234.792 127.631L234.833 127.561ZM237.78 129.04C237.841 129.65 238.016 130.038 238.305 130.205C238.89 131.167 238.91 132.121 238.364 133.067C237.656 134.572 235.779 135.786 232.733 136.707C232.423 137.094 232.173 137.233 231.984 137.124C231.81 137.023 231.784 136.868 231.906 136.657L231.85 136.625L233.161 135.236C234.01 133.973 235.081 132.321 236.375 130.281L236.78 129.579C237.103 129.021 237.436 128.841 237.78 129.04ZM233.294 135.908L233.35 135.94C234.35 135.926 235.583 135.288 237.048 134.025L237.816 133.005L238.042 132.614C238.494 131.453 238.329 130.646 237.547 130.195C237.24 130.018 236.914 130.229 236.568 130.827L233.294 135.908Z" fill="white"/>
<path d="M162.2 198.579L162.571 198.639C163.125 198.728 163.331 199.212 163.189 200.089C162.379 201.791 161.298 202.953 159.947 203.575L159.9 203.865C160.495 207.442 161.038 209.445 161.527 209.875L161.885 210.016L161.825 210.387L161.298 210.69C160.911 210.627 160.473 209.379 159.984 206.946L159.342 204.447L159.052 204.4L159.037 204.494L158.891 206.084C158.599 207.893 158.291 208.771 157.967 208.719L157.704 208.676C157.56 208.653 157.489 208.48 157.49 208.157L157.929 207.279L159.195 200.594C158.88 200.543 158.743 200.392 158.784 200.14C159.097 199.803 159.268 199.544 159.297 199.364L159.418 198.615L159.753 198.385L159.834 198.398L160.466 198.687L162.2 198.579ZM160.009 199.673L159.522 202.177L159.417 202.825L159.568 203.05L159.757 203.08C161.381 202.055 162.272 201.049 162.431 200.064L162.507 199.598L162.19 199.159L162.109 199.146C161.411 199.033 160.711 199.209 160.009 199.673ZM166.205 202.078C167.152 202.531 167.569 203.109 167.456 203.81L167.411 204.087C167.187 205.477 166.408 206.34 165.075 206.674L164.441 206.571L164.409 206.767C164.229 207.883 164.38 208.706 164.863 209.236L165.153 209.283C165.504 209.34 166.081 208.923 166.885 208.032L166.953 208.126L167.054 208.143C166.377 209.506 165.638 210.123 164.837 209.994C164.109 209.876 163.72 208.505 163.673 205.88C163.574 205.864 163.539 205.699 163.566 205.385C163.849 205.232 164.202 204.46 164.625 203.07C165.233 202.337 165.759 202.006 166.205 202.078ZM164.527 205.353C164.532 205.667 164.604 205.836 164.743 205.858L165.31 205.95C166.113 205.72 166.602 205.064 166.777 203.985L166.792 203.89C166.797 203.259 166.561 202.904 166.084 202.827C165.337 202.707 164.818 203.549 164.527 205.353ZM172.449 203.114L172.533 203.238L172.503 203.42C171.185 204.066 170.453 204.841 170.307 205.745L170.275 205.941C170.169 206.603 170.55 207.617 171.418 208.985L171.438 209.376C170.798 210.482 169.832 210.931 168.541 210.723C167.862 210.613 167.562 210.309 167.643 209.809L168.74 210.09L169.118 210.151C170.025 210.081 170.522 209.778 170.608 209.242L170.624 209.141C170.649 208.988 170.328 208.205 169.66 206.791L169.551 205.707C169.736 204.564 170.643 203.69 172.273 203.085L172.449 203.114ZM175.827 203.631C176.774 204.084 177.191 204.661 177.077 205.363L177.033 205.64C176.808 207.03 176.03 207.892 174.697 208.227L174.063 208.124L174.031 208.32C173.851 209.436 174.002 210.259 174.485 210.789L174.775 210.836C175.126 210.892 175.703 210.475 176.507 209.585L176.575 209.679L176.676 209.695C175.999 211.059 175.26 211.676 174.459 211.547C173.73 211.429 173.342 210.058 173.295 207.433C173.196 207.417 173.161 207.252 173.188 206.937C173.471 206.785 173.824 206.013 174.247 204.623C174.855 203.89 175.381 203.559 175.827 203.631ZM174.149 206.906C174.153 207.22 174.225 207.389 174.365 207.411L174.932 207.503C175.735 207.272 176.224 206.617 176.398 205.537L176.414 205.443C176.419 204.811 176.183 204.457 175.706 204.38C174.959 204.26 174.44 205.101 174.149 206.906ZM181.802 205.004L182.078 205.048L182.395 205.487L182.365 205.676L182.14 205.827L181.696 205.658C180.49 206.812 179.792 207.975 179.602 209.15L179.362 210.641L179.283 211.688C179.242 211.94 179.069 212.041 178.763 211.992L178.75 212.073C178.518 211.938 178.409 211.826 178.423 211.736L178.589 210.71C178.836 207.69 178.888 206.168 178.744 206.145C178.931 205.787 179.085 205.618 179.207 205.638L179.301 205.653C179.537 205.792 179.627 206.033 179.572 206.375L179.407 207.401L179.501 207.416C180.335 206.17 181.102 205.366 181.802 205.004ZM186.903 206.042C187.015 206.088 187.114 206.265 187.198 206.574C186.943 206.921 186.055 208.848 184.534 212.355C184.215 212.812 183.922 213.057 183.653 213.093C183.284 213.033 183.24 212.133 183.521 210.391L183.777 206.403C183.922 206.048 184.136 205.893 184.42 205.939L184.637 206.355L184.435 207.091C183.992 210.006 183.91 211.486 184.189 211.531C185.397 209.192 186.057 207.678 186.168 206.989L186.195 206.225C186.455 206.069 186.691 206.008 186.903 206.042ZM190.864 206.508L191.154 206.555L191.399 206.795L191.074 208.162C190.716 211.497 190.731 213.196 191.118 213.258L191.3 213.288L191.287 213.369C191.232 213.711 191.072 213.914 190.808 213.977L190.43 213.916C190.182 213.876 190.077 213.155 190.114 211.753L190.02 211.738C189.318 213.799 188.589 214.768 187.833 214.646C187.401 214.577 187.291 213.883 187.504 212.565L187.668 211.552C188.13 208.686 188.915 207.154 190.023 206.954C190.199 206.982 190.479 206.833 190.864 206.508ZM188.362 211.367L188.152 212.669C188.041 213.357 188.078 213.717 188.262 213.746C188.667 213.812 189.333 212.262 190.259 209.097L190.275 208.996C190.371 208.116 190.349 207.664 190.21 207.642L189.92 207.595C189.303 207.495 188.784 208.753 188.362 211.367ZM203.24 204.634L203.452 204.655L203.385 205.329L203.369 205.424C203.139 206.85 203.116 207.578 203.301 207.608L204.261 207.451C204.303 207.592 204.342 207.737 204.378 207.885C204.249 207.966 204.214 208.025 204.273 208.062L203.063 208.435L202.476 213.319L202.416 213.69C202.251 214.6 202.067 215.323 201.865 215.859L201.431 215.761L201.638 214.305L202.011 211.997L202.176 210.972C202.436 209.361 202.474 208.541 202.289 208.511L201.421 208.44L201.137 208.27L201.2 208.051L201.369 208.037L201.551 208.066C202.154 208.076 202.482 207.917 202.535 207.588L202.79 204.763L202.905 204.698L203.24 204.634ZM207.23 208.699C208.177 209.152 208.594 209.729 208.481 210.431L208.436 210.708C208.212 212.098 207.433 212.96 206.101 213.294L205.466 213.192L205.435 213.388C205.255 214.504 205.406 215.327 205.888 215.857L206.178 215.904C206.529 215.96 207.106 215.543 207.91 214.653L207.978 214.747L208.079 214.763C207.402 216.127 206.663 216.744 205.863 216.614C205.134 216.497 204.746 215.125 204.698 212.5C204.599 212.484 204.564 212.319 204.591 212.005C204.875 211.853 205.228 211.081 205.65 209.69C206.258 208.957 206.785 208.627 207.23 208.699ZM205.552 211.973C205.557 212.288 205.629 212.457 205.768 212.479L206.335 212.571C207.139 212.34 207.627 211.685 207.802 210.605L207.817 210.511C207.822 209.879 207.586 209.525 207.109 209.448C206.362 209.327 205.843 210.169 205.552 211.973ZM213.624 210.652L213.774 210.877L213.472 211.59L213.425 211.88L213.386 212.642C212.597 215.954 211.803 217.545 211.002 217.416C210.183 217.284 209.845 215.6 209.989 212.364L210.078 211.811C210.155 211.338 210.323 211.081 210.583 211.04L210.779 211.072L211.026 211.299L210.821 211.93L210.671 212.855C210.472 214.092 210.557 215.355 210.926 216.642L211.122 216.674C211.582 216.568 212.049 215.434 212.522 213.271L212.675 212.327C212.746 211.886 212.741 211.532 212.659 211.265C212.723 210.869 213.045 210.664 213.624 210.652ZM225.116 212.112C225.697 212.205 225.967 213.103 225.928 214.805L225.815 214.904L225.726 215.458C225.106 218.298 224.377 219.651 223.541 219.516L223.426 219.58L223.332 219.565C222.435 219.203 222.16 217.945 222.508 215.79C222.938 213.126 223.807 211.9 225.116 212.112ZM223.149 215.422C222.937 217.618 223.039 218.749 223.453 218.816L223.547 218.831C224.074 218.916 224.596 217.853 225.114 215.643L225.327 214.327C225.462 213.49 225.259 212.984 224.72 212.809C223.937 212.909 223.414 213.78 223.149 215.422ZM228.793 208.717L229.212 209.082L228.984 209.897L228.603 214.613L228.705 214.63C229.365 213.97 229.889 213.671 230.276 213.734L230.566 213.78C231.209 214.54 231.477 215.259 231.367 215.939C230.611 217.935 229.616 219.367 228.382 220.235L228.253 220.304C228.015 220.205 227.916 220.032 227.956 219.785L227.773 219.756C227.315 219.682 227.083 219.545 227.078 219.346L227.091 219.265L227.387 218.544C228.073 214.297 228.363 211.154 228.258 209.115C228.285 208.948 228.463 208.816 228.793 208.717ZM228.124 219.431L228.198 219.526C228.834 219.278 229.517 218.405 230.248 216.907L230.564 216.197C230.736 215.126 230.537 214.544 229.966 214.452C229.376 214.357 228.762 216.017 228.124 219.431ZM233.615 212.728C233.995 212.951 234.188 213.139 234.196 213.293L234.149 213.583L233.83 213.802L233.357 213.725C233.182 213.637 233.12 213.438 233.17 213.127L233.615 212.728ZM233.941 214.311L234.176 214.619L233.882 215.839C233.774 219.251 233.635 221.486 233.465 222.544L233.386 223.03C232.864 226.264 231.89 227.767 230.464 227.537C229.838 227.066 229.576 226.514 229.679 225.88L229.77 225.313L229.952 225.342L230.402 226.758L230.469 226.859L230.665 226.89C231.659 227.051 232.417 225.514 232.94 222.279C233.249 219.19 233.338 216.651 233.206 214.664C233.345 214.372 233.59 214.255 233.941 214.311ZM238.728 213.782C239.675 214.235 240.092 214.812 239.978 215.514L239.934 215.791C239.709 217.181 238.931 218.043 237.598 218.378L236.964 218.275L236.932 218.471C236.752 219.587 236.903 220.41 237.386 220.94L237.676 220.987C238.027 221.043 238.604 220.626 239.408 219.736L239.476 219.83L239.577 219.846C238.9 221.21 238.161 221.827 237.36 221.697C236.631 221.58 236.243 220.209 236.196 217.583C236.097 217.567 236.061 217.402 236.089 217.088C236.372 216.936 236.725 216.164 237.148 214.773C237.756 214.041 238.282 213.71 238.728 213.782ZM237.05 217.056C237.054 217.371 237.126 217.54 237.266 217.562L237.833 217.654C238.636 217.423 239.125 216.768 239.299 215.688L239.315 215.594C239.32 214.962 239.084 214.608 238.607 214.531C237.86 214.411 237.341 215.252 237.05 217.056ZM243.429 211.12L243.64 211.14L243.573 211.815L243.558 211.909C243.327 213.336 243.305 214.064 243.489 214.093L244.449 213.937C244.491 214.077 244.53 214.222 244.566 214.371C244.438 214.452 244.403 214.511 244.461 214.548L243.252 214.921L242.664 219.804L242.604 220.176C242.439 221.086 242.255 221.809 242.054 222.344L241.619 222.246L241.827 220.791L242.199 218.483L242.365 217.457C242.624 215.846 242.662 215.026 242.478 214.997L241.61 214.926L241.326 214.755L241.389 214.537L241.557 214.522L241.739 214.552C242.343 214.562 242.671 214.402 242.724 214.074L242.979 211.248L243.093 211.184L243.429 211.12ZM247.443 215.715C248.024 215.808 248.294 216.706 248.255 218.408L248.142 218.507L248.053 219.061C247.433 221.901 246.705 223.254 245.868 223.119L245.753 223.184L245.659 223.168C244.762 222.807 244.487 221.548 244.835 219.393C245.265 216.73 246.134 215.504 247.443 215.715ZM245.476 219.026C245.265 221.221 245.366 222.352 245.78 222.419L245.874 222.434C246.401 222.519 246.923 221.457 247.441 219.246L247.654 217.93C247.789 217.093 247.587 216.587 247.047 216.412C246.265 216.512 245.741 217.383 245.476 219.026ZM261.032 218.005C261.144 218.05 261.243 218.228 261.327 218.537C261.072 218.884 260.184 220.811 258.663 224.318C258.344 224.775 258.051 225.02 257.782 225.055C257.413 224.996 257.369 224.096 257.65 222.354L257.906 218.366C258.051 218.011 258.265 217.856 258.549 217.902L258.766 218.317L258.564 219.053C258.121 221.969 258.039 223.449 258.318 223.494C259.526 221.155 260.186 219.641 260.297 218.952L260.324 218.188C260.584 218.032 260.82 217.97 261.032 218.005ZM263.483 216.842C263.721 216.881 263.922 217.04 264.084 217.32C264.055 217.505 263.799 217.685 263.318 217.861C263.152 217.834 263.023 217.659 262.932 217.335C263.109 217.013 263.293 216.848 263.483 216.842ZM263.091 219.272L263.32 219.696C263.033 219.904 262.799 220.566 262.619 221.681C262.456 222.864 262.453 224.041 262.61 225.211L262.58 225.4L262.263 225.647L261.986 225.602C261.689 225.554 261.703 224.054 262.027 221.101C262.237 219.801 262.531 219.181 262.909 219.242L263.091 219.272ZM268.353 219.484L268.504 219.709L268.202 220.422L268.155 220.712L268.115 221.474C267.326 224.786 266.532 226.377 265.731 226.248C264.912 226.116 264.575 224.432 264.718 221.196L264.808 220.643C264.884 220.17 265.052 219.914 265.313 219.873L265.508 219.904L265.756 220.131L265.55 220.763L265.401 221.687C265.201 222.924 265.286 224.187 265.655 225.474L265.851 225.506C266.311 225.4 266.778 224.266 267.252 222.104L267.404 221.159C267.475 220.718 267.47 220.364 267.388 220.097C267.452 219.701 267.774 219.497 268.353 219.484ZM271.833 213.917L272.427 214.401L271.049 222.938L270.927 223.05L270.752 223.022C270.528 222.805 270.602 221.546 270.974 219.242L271.833 213.917ZM270.271 225.354C270.641 225.584 270.825 225.826 270.826 226.08L270.768 226.438C270.593 226.751 270.413 226.893 270.229 226.863C269.851 226.802 269.643 226.517 269.605 226.008C269.645 225.76 269.867 225.542 270.271 225.354Z" fill="white"/>
<g filter="url(#filter0_i_83_246)">
<path d="M93.912 138.839C93.528 138.839 93.1333 138.764 92.728 138.615C92.3227 138.466 91.9813 138.263 91.704 138.007C91.4267 137.751 91.288 137.452 91.288 137.111C91.288 137.047 91.2987 136.94 91.32 136.791L97.496 116.663C97.6453 116.194 97.976 115.842 98.488 115.607C99.0213 115.372 99.5867 115.255 100.184 115.255C100.803 115.255 101.368 115.372 101.88 115.607C102.392 115.842 102.723 116.194 102.872 116.663L109.048 136.791C109.091 136.94 109.112 137.047 109.112 137.111C109.112 137.431 108.963 137.73 108.664 138.007C108.387 138.263 108.045 138.466 107.64 138.615C107.235 138.764 106.84 138.839 106.456 138.839C106.115 138.839 105.816 138.786 105.56 138.679C105.325 138.551 105.165 138.327 105.08 138.007L103.864 133.751H96.504L95.32 138.007C95.2347 138.327 95.064 138.551 94.808 138.679C94.552 138.786 94.2533 138.839 93.912 138.839ZM97.4 130.487H102.968L100.184 120.663L97.4 130.487ZM118.431 139.031C117.108 139.031 115.882 138.796 114.751 138.327C113.62 137.836 112.714 137.058 112.031 135.991C111.37 134.903 111.039 133.463 111.039 131.671V122.807C111.039 121.015 111.37 119.586 112.031 118.519C112.714 117.431 113.62 116.652 114.751 116.183C115.882 115.692 117.119 115.447 118.463 115.447C119.956 115.447 121.268 115.703 122.399 116.215C123.551 116.706 124.447 117.399 125.087 118.295C125.748 119.191 126.079 120.268 126.079 121.527C126.079 122.359 125.908 122.914 125.567 123.191C125.226 123.447 124.703 123.575 123.999 123.575C123.423 123.575 122.932 123.479 122.527 123.287C122.143 123.074 121.94 122.732 121.919 122.263C121.919 122.007 121.876 121.708 121.791 121.367C121.727 121.004 121.588 120.652 121.375 120.311C121.162 119.97 120.831 119.682 120.383 119.447C119.956 119.212 119.359 119.095 118.591 119.095C117.503 119.095 116.671 119.404 116.095 120.023C115.519 120.62 115.231 121.548 115.231 122.807V131.671C115.231 132.951 115.519 133.89 116.095 134.487C116.692 135.084 117.546 135.383 118.655 135.383C119.38 135.383 119.956 135.266 120.383 135.031C120.81 134.796 121.119 134.508 121.311 134.167C121.524 133.804 121.663 133.431 121.727 133.047C121.812 132.663 121.876 132.3 121.919 131.959C121.962 131.447 122.175 131.106 122.559 130.935C122.943 130.743 123.412 130.647 123.967 130.647C124.692 130.647 125.226 130.786 125.567 131.063C125.908 131.34 126.079 131.884 126.079 132.695C126.079 133.975 125.748 135.095 125.087 136.055C124.447 137.015 123.551 137.751 122.399 138.263C121.247 138.775 119.924 139.031 118.431 139.031ZM131 138.839C130.488 138.839 130.008 138.732 129.56 138.519C129.133 138.284 128.92 137.943 128.92 137.495V116.759C128.92 116.29 129.133 115.959 129.56 115.767C130.008 115.554 130.488 115.447 131 115.447C131.533 115.447 132.013 115.554 132.44 115.767C132.867 115.959 133.08 116.29 133.08 116.759V125.079H140.28V116.759C140.28 116.29 140.493 115.959 140.92 115.767C141.368 115.554 141.848 115.447 142.36 115.447C142.893 115.447 143.373 115.554 143.8 115.767C144.227 115.959 144.44 116.29 144.44 116.759V137.495C144.44 137.943 144.227 138.284 143.8 138.519C143.373 138.732 142.893 138.839 142.36 138.839C141.848 138.839 141.368 138.732 140.92 138.519C140.493 138.284 140.28 137.943 140.28 137.495V128.343H133.08V137.495C133.08 137.943 132.867 138.284 132.44 138.519C132.013 138.732 131.533 138.839 131 138.839ZM149.318 138.839C148.934 138.839 148.54 138.764 148.134 138.615C147.729 138.466 147.388 138.263 147.11 138.007C146.833 137.751 146.694 137.452 146.694 137.111C146.694 137.047 146.705 136.94 146.726 136.791L152.902 116.663C153.052 116.194 153.382 115.842 153.894 115.607C154.428 115.372 154.993 115.255 155.59 115.255C156.209 115.255 156.774 115.372 157.286 115.607C157.798 115.842 158.129 116.194 158.278 116.663L164.454 136.791C164.497 136.94 164.518 137.047 164.518 137.111C164.518 137.431 164.369 137.73 164.07 138.007C163.793 138.263 163.452 138.466 163.046 138.615C162.641 138.764 162.246 138.839 161.862 138.839C161.521 138.839 161.222 138.786 160.966 138.679C160.732 138.551 160.572 138.327 160.486 138.007L159.27 133.751H151.91L150.726 138.007C150.641 138.327 150.47 138.551 150.214 138.679C149.958 138.786 149.66 138.839 149.318 138.839ZM152.806 130.487H158.374L155.59 120.663L152.806 130.487ZM168.525 138.839C167.971 138.839 167.523 138.711 167.181 138.455C166.861 138.199 166.701 137.89 166.701 137.527V116.759C166.701 116.396 166.861 116.087 167.181 115.831C167.523 115.575 167.971 115.447 168.525 115.447H174.189C175.619 115.447 176.899 115.692 178.029 116.183C179.16 116.652 180.056 117.431 180.717 118.519C181.4 119.586 181.741 121.015 181.741 122.807V131.479C181.741 133.271 181.4 134.711 180.717 135.799C180.056 136.866 179.16 137.644 178.029 138.135C176.899 138.604 175.619 138.839 174.189 138.839H168.525ZM170.861 135.191H174.189C175.256 135.191 176.088 134.892 176.685 134.295C177.283 133.676 177.581 132.738 177.581 131.479V122.807C177.581 121.548 177.283 120.62 176.685 120.023C176.088 119.404 175.267 119.095 174.221 119.095H170.861V135.191ZM192.559 139.031C191.151 139.031 189.882 138.796 188.751 138.327C187.62 137.836 186.714 137.058 186.031 135.991C185.37 134.903 185.039 133.463 185.039 131.671V122.807C185.039 121.015 185.37 119.586 186.031 118.519C186.714 117.431 187.61 116.652 188.719 116.183C189.85 115.692 191.13 115.447 192.559 115.447C193.967 115.447 195.236 115.692 196.367 116.183C197.519 116.652 198.426 117.431 199.087 118.519C199.748 119.586 200.079 121.015 200.079 122.807V131.671C200.079 133.463 199.748 134.903 199.087 135.991C198.426 137.058 197.519 137.836 196.367 138.327C195.236 138.796 193.967 139.031 192.559 139.031ZM192.559 135.383C193.604 135.383 194.426 135.084 195.023 134.487C195.62 133.89 195.919 132.951 195.919 131.671V122.807C195.919 121.527 195.62 120.588 195.023 119.991C194.426 119.394 193.604 119.095 192.559 119.095C191.514 119.095 190.692 119.394 190.095 119.991C189.519 120.588 189.231 121.527 189.231 122.807V131.671C189.231 132.951 189.519 133.89 190.095 134.487C190.692 135.084 191.514 135.383 192.559 135.383ZM209.91 139.127C208.523 139.127 207.265 138.924 206.134 138.519C205.025 138.114 204.139 137.612 203.478 137.015C202.838 136.396 202.518 135.778 202.518 135.159C202.518 134.86 202.593 134.54 202.742 134.199C202.913 133.836 203.137 133.538 203.414 133.303C203.691 133.047 204.001 132.919 204.342 132.919C204.683 132.919 205.003 133.047 205.302 133.303C205.601 133.538 205.942 133.826 206.326 134.167C206.71 134.487 207.179 134.775 207.734 135.031C208.289 135.266 208.971 135.383 209.782 135.383C210.422 135.383 211.009 135.287 211.542 135.095C212.097 134.882 212.534 134.572 212.854 134.167C213.195 133.762 213.366 133.239 213.366 132.599C213.366 131.916 213.185 131.34 212.822 130.871C212.459 130.402 211.969 129.996 211.35 129.655C210.731 129.314 210.059 128.983 209.334 128.663C208.609 128.343 207.873 128.002 207.126 127.639C206.401 127.276 205.729 126.839 205.11 126.327C204.513 125.815 204.022 125.186 203.638 124.439C203.275 123.692 203.094 122.775 203.094 121.687C203.094 120.492 203.318 119.49 203.766 118.679C204.235 117.868 204.843 117.218 205.59 116.727C206.358 116.215 207.201 115.852 208.118 115.639C209.035 115.404 209.953 115.287 210.87 115.287C211.361 115.287 211.937 115.33 212.598 115.415C213.281 115.479 213.953 115.607 214.614 115.799C215.297 115.991 215.851 116.258 216.278 116.599C216.726 116.919 216.95 117.346 216.95 117.879C216.95 118.114 216.886 118.402 216.758 118.743C216.651 119.084 216.47 119.394 216.214 119.671C215.979 119.948 215.67 120.087 215.286 120.087C214.945 120.087 214.603 119.991 214.262 119.799C213.942 119.586 213.515 119.383 212.982 119.191C212.47 118.978 211.766 118.871 210.87 118.871C210.123 118.871 209.473 118.967 208.918 119.159C208.363 119.351 207.947 119.628 207.67 119.991C207.393 120.332 207.254 120.77 207.254 121.303C207.254 121.858 207.435 122.327 207.798 122.711C208.182 123.095 208.673 123.436 209.27 123.735C209.889 124.034 210.561 124.332 211.286 124.631C212.011 124.93 212.737 125.282 213.462 125.687C214.209 126.071 214.891 126.54 215.51 127.095C216.129 127.65 216.619 128.343 216.982 129.175C217.345 129.986 217.526 130.988 217.526 132.183C217.526 133.698 217.195 134.978 216.534 136.023C215.873 137.047 214.966 137.826 213.814 138.359C212.683 138.871 211.382 139.127 209.91 139.127Z" fill="white"/>
</g>
<g filter="url(#filter1_i_83_246)">
<path d="M124.768 160.127C123.253 160.127 121.909 159.86 120.736 159.327C119.584 158.772 118.677 158.004 118.016 157.023C117.355 156.02 117.024 154.868 117.024 153.567V150.847C117.024 149.695 117.333 148.639 117.952 147.679C118.592 146.698 119.435 145.919 120.48 145.343C121.547 144.746 122.731 144.447 124.032 144.447C125.227 144.447 126.315 144.703 127.296 145.215C128.299 145.727 129.109 146.431 129.728 147.327C130.347 148.223 130.656 149.268 130.656 150.463C130.656 151.38 130.507 152.042 130.208 152.447C129.909 152.831 129.525 153.076 129.056 153.183C128.608 153.268 128.139 153.311 127.648 153.311H121.152V153.791C121.152 154.708 121.493 155.455 122.176 156.031C122.88 156.586 123.787 156.863 124.896 156.863C125.6 156.863 126.187 156.756 126.656 156.543C127.125 156.33 127.531 156.127 127.872 155.935C128.213 155.743 128.533 155.647 128.832 155.647C129.152 155.647 129.429 155.754 129.664 155.967C129.899 156.18 130.08 156.436 130.208 156.735C130.336 157.012 130.4 157.258 130.4 157.471C130.4 157.834 130.165 158.228 129.696 158.655C129.248 159.06 128.597 159.412 127.744 159.711C126.912 159.988 125.92 160.127 124.768 160.127ZM121.152 150.879H125.824C126.187 150.879 126.432 150.826 126.56 150.719C126.709 150.591 126.784 150.356 126.784 150.015C126.784 149.524 126.645 149.087 126.368 148.703C126.112 148.319 125.771 148.02 125.344 147.807C124.939 147.594 124.48 147.487 123.968 147.487C123.477 147.487 123.019 147.594 122.592 147.807C122.165 147.999 121.813 148.287 121.536 148.671C121.28 149.034 121.152 149.471 121.152 149.983V150.879Z" fill="white"/>
</g>
<g filter="url(#filter2_i_83_246)">
<path d="M140 166.839C139.488 166.839 139.008 166.732 138.56 166.519C138.133 166.284 137.92 165.943 137.92 165.495V144.759C137.92 144.396 138.069 144.087 138.368 143.831C138.667 143.575 139.051 143.447 139.52 143.447H145.92C147.285 143.447 148.512 143.682 149.6 144.151C150.709 144.62 151.584 145.388 152.224 146.455C152.864 147.5 153.184 148.898 153.184 150.647V150.839C153.184 152.588 152.853 153.996 152.192 155.063C151.531 156.13 150.624 156.908 149.472 157.399C148.341 157.868 147.072 158.103 145.664 158.103H142.08V165.495C142.08 165.943 141.867 166.284 141.44 166.519C141.013 166.732 140.533 166.839 140 166.839ZM142.08 154.839H145.664C146.731 154.839 147.552 154.54 148.128 153.943C148.725 153.324 149.024 152.396 149.024 151.159V150.807C149.024 149.548 148.725 148.62 148.128 148.023C147.552 147.404 146.731 147.095 145.664 147.095H142.08V154.839ZM157.557 166.839C157.109 166.839 156.693 166.732 156.309 166.519C155.925 166.284 155.733 165.943 155.733 165.495V144.791C155.733 144.343 155.925 144.012 156.309 143.799C156.693 143.564 157.109 143.447 157.557 143.447H168.949C169.418 143.447 169.749 143.639 169.941 144.023C170.154 144.407 170.26 144.812 170.26 145.239C170.26 145.751 170.143 146.188 169.909 146.551C169.695 146.914 169.375 147.095 168.949 147.095H159.893V153.495H164.757C165.183 153.495 165.503 153.666 165.717 154.007C165.951 154.327 166.069 154.711 166.069 155.159C166.069 155.522 165.962 155.884 165.749 156.247C165.557 156.588 165.226 156.759 164.757 156.759H159.893V163.191H168.949C169.375 163.191 169.695 163.372 169.909 163.735C170.143 164.098 170.26 164.535 170.26 165.047C170.26 165.474 170.154 165.879 169.941 166.263C169.749 166.647 169.418 166.839 168.949 166.839H157.557ZM185.533 166.999C185.256 166.999 184.979 166.914 184.701 166.743C184.445 166.572 184.243 166.327 184.093 166.007L179.549 157.175H176.861V165.495C176.861 165.943 176.648 166.284 176.221 166.519C175.795 166.732 175.315 166.839 174.781 166.839C174.269 166.839 173.789 166.732 173.341 166.519C172.915 166.284 172.701 165.943 172.701 165.495V144.759C172.701 144.396 172.819 144.087 173.053 143.831C173.309 143.575 173.64 143.447 174.045 143.447H180.381C181.789 143.447 183.059 143.65 184.189 144.055C185.341 144.46 186.259 145.154 186.941 146.135C187.624 147.095 187.965 148.428 187.965 150.135C187.965 151.372 187.784 152.428 187.421 153.303C187.059 154.156 186.557 154.85 185.917 155.383C185.299 155.895 184.584 156.279 183.773 156.535L187.997 164.311C188.04 164.396 188.072 164.492 188.093 164.599C188.115 164.684 188.125 164.759 188.125 164.823C188.125 165.164 187.997 165.506 187.741 165.847C187.485 166.188 187.155 166.466 186.749 166.679C186.365 166.892 185.96 166.999 185.533 166.999ZM176.861 153.911H180.381C181.427 153.911 182.259 153.655 182.877 153.143C183.496 152.631 183.805 151.756 183.805 150.519C183.805 149.239 183.496 148.354 182.877 147.863C182.259 147.351 181.427 147.095 180.381 147.095H176.861V153.911ZM192.713 166.839C192.158 166.839 191.71 166.711 191.369 166.455C191.049 166.199 190.889 165.89 190.889 165.527V144.759C190.889 144.396 191.049 144.087 191.369 143.831C191.71 143.575 192.158 143.447 192.713 143.447H198.377C199.806 143.447 201.086 143.692 202.217 144.183C203.347 144.652 204.243 145.431 204.905 146.519C205.587 147.586 205.929 149.015 205.929 150.807V159.479C205.929 161.271 205.587 162.711 204.905 163.799C204.243 164.866 203.347 165.644 202.217 166.135C201.086 166.604 199.806 166.839 198.377 166.839H192.713ZM195.049 163.191H198.377C199.443 163.191 200.275 162.892 200.873 162.295C201.47 161.676 201.769 160.738 201.769 159.479V150.807C201.769 149.548 201.47 148.62 200.873 148.023C200.275 147.404 199.454 147.095 198.409 147.095H195.049V163.191ZM211.562 166.839C211.051 166.839 210.571 166.732 210.123 166.519C209.696 166.284 209.483 165.943 209.483 165.495V144.759C209.483 144.29 209.696 143.959 210.123 143.767C210.571 143.554 211.051 143.447 211.562 143.447C212.096 143.447 212.576 143.554 213.003 143.767C213.429 143.959 213.643 144.29 213.643 144.759V165.495C213.643 165.943 213.429 166.284 213.003 166.519C212.576 166.732 212.096 166.839 211.562 166.839ZM219.338 166.839C218.783 166.839 218.335 166.711 217.994 166.455C217.674 166.199 217.514 165.89 217.514 165.527V144.759C217.514 144.396 217.674 144.087 217.994 143.831C218.335 143.575 218.783 143.447 219.338 143.447H225.002C226.431 143.447 227.711 143.692 228.842 144.183C229.972 144.652 230.868 145.431 231.53 146.519C232.212 147.586 232.554 149.015 232.554 150.807V159.479C232.554 161.271 232.212 162.711 231.53 163.799C230.868 164.866 229.972 165.644 228.842 166.135C227.711 166.604 226.431 166.839 225.002 166.839H219.338ZM221.674 163.191H225.002C226.068 163.191 226.9 162.892 227.498 162.295C228.095 161.676 228.394 160.738 228.394 159.479V150.807C228.394 149.548 228.095 148.62 227.498 148.023C226.9 147.404 226.079 147.095 225.034 147.095H221.674V163.191ZM243.372 167.031C241.964 167.031 240.694 166.796 239.564 166.327C238.433 165.836 237.526 165.058 236.844 163.991C236.182 162.903 235.852 161.463 235.852 159.671V150.807C235.852 149.015 236.182 147.586 236.844 146.519C237.526 145.431 238.422 144.652 239.532 144.183C240.662 143.692 241.942 143.447 243.372 143.447C244.78 143.447 246.049 143.692 247.18 144.183C248.332 144.652 249.238 145.431 249.9 146.519C250.561 147.586 250.892 149.015 250.892 150.807V159.671C250.892 161.463 250.561 162.903 249.9 163.991C249.238 165.058 248.332 165.836 247.18 166.327C246.049 166.796 244.78 167.031 243.372 167.031ZM243.372 163.383C244.417 163.383 245.238 163.084 245.836 162.487C246.433 161.89 246.732 160.951 246.732 159.671V150.807C246.732 149.527 246.433 148.588 245.836 147.991C245.238 147.394 244.417 147.095 243.372 147.095C242.326 147.095 241.505 147.394 240.908 147.991C240.332 148.588 240.044 149.527 240.044 150.807V159.671C240.044 160.951 240.332 161.89 240.908 162.487C241.505 163.084 242.326 163.383 243.372 163.383ZM260.723 167.127C259.336 167.127 258.077 166.924 256.947 166.519C255.837 166.114 254.952 165.612 254.291 165.015C253.651 164.396 253.331 163.778 253.331 163.159C253.331 162.86 253.405 162.54 253.555 162.199C253.725 161.836 253.949 161.538 254.227 161.303C254.504 161.047 254.813 160.919 255.155 160.919C255.496 160.919 255.816 161.047 256.115 161.303C256.413 161.538 256.755 161.826 257.139 162.167C257.523 162.487 257.992 162.775 258.547 163.031C259.101 163.266 259.784 163.383 260.595 163.383C261.235 163.383 261.821 163.287 262.355 163.095C262.909 162.882 263.347 162.572 263.667 162.167C264.008 161.762 264.179 161.239 264.179 160.599C264.179 159.916 263.997 159.34 263.635 158.871C263.272 158.402 262.781 157.996 262.163 157.655C261.544 157.314 260.872 156.983 260.147 156.663C259.421 156.343 258.685 156.002 257.939 155.639C257.213 155.276 256.541 154.839 255.923 154.327C255.325 153.815 254.835 153.186 254.451 152.439C254.088 151.692 253.907 150.775 253.907 149.687C253.907 148.492 254.131 147.49 254.579 146.679C255.048 145.868 255.656 145.218 256.403 144.727C257.171 144.215 258.013 143.852 258.931 143.639C259.848 143.404 260.765 143.287 261.683 143.287C262.173 143.287 262.749 143.33 263.411 143.415C264.093 143.479 264.765 143.607 265.427 143.799C266.109 143.991 266.664 144.258 267.091 144.599C267.539 144.919 267.763 145.346 267.763 145.879C267.763 146.114 267.699 146.402 267.571 146.743C267.464 147.084 267.283 147.394 267.027 147.671C266.792 147.948 266.483 148.087 266.099 148.087C265.757 148.087 265.416 147.991 265.075 147.799C264.755 147.586 264.328 147.383 263.795 147.191C263.283 146.978 262.579 146.871 261.683 146.871C260.936 146.871 260.285 146.967 259.731 147.159C259.176 147.351 258.76 147.628 258.483 147.991C258.205 148.332 258.067 148.77 258.067 149.303C258.067 149.858 258.248 150.327 258.611 150.711C258.995 151.095 259.485 151.436 260.083 151.735C260.701 152.034 261.373 152.332 262.099 152.631C262.824 152.93 263.549 153.282 264.275 153.687C265.021 154.071 265.704 154.54 266.323 155.095C266.941 155.65 267.432 156.343 267.795 157.175C268.157 157.986 268.339 158.988 268.339 160.183C268.339 161.698 268.008 162.978 267.347 164.023C266.685 165.047 265.779 165.826 264.627 166.359C263.496 166.871 262.195 167.127 260.723 167.127Z" fill="white"/>
</g>
<defs>
<filter id="filter0_i_83_246" x="91.288" y="115.255" width="128.238" height="24.8719" filterUnits="userSpaceOnUse" color-interpolation-filters="sRGB">
<feFlood flood-opacity="0" result="BackgroundImageFix"/>
<feBlend mode="normal" in="SourceGraphic" in2="BackgroundImageFix" result="shape"/>
<feColorMatrix in="SourceAlpha" type="matrix" values="0 0 0 0 0 0 0 0 0 0 0 0 0 0 0 0 0 0 127 0" result="hardAlpha"/>
<feOffset dx="2" dy="1"/>
<feGaussianBlur stdDeviation="2"/>
<feComposite in2="hardAlpha" operator="arithmetic" k2="-1" k3="1"/>
<feColorMatrix type="matrix" values="0 0 0 0 0 0 0 0 0 0 0 0 0 0 0 0 0 0 0.4 0"/>
<feBlend mode="normal" in2="shape" result="effect1_innerShadow_83_246"/>
</filter>
<filter id="filter1_i_83_246" x="117.024" y="144.447" width="15.632" height="16.6799" filterUnits="userSpaceOnUse" color-interpolation-filters="sRGB">
<feFlood flood-opacity="0" result="BackgroundImageFix"/>
<feBlend mode="normal" in="SourceGraphic" in2="BackgroundImageFix" result="shape"/>
<feColorMatrix in="SourceAlpha" type="matrix" values="0 0 0 0 0 0 0 0 0 0 0 0 0 0 0 0 0 0 127 0" result="hardAlpha"/>
<feOffset dx="2" dy="1"/>
<feGaussianBlur stdDeviation="2"/>
<feComposite in2="hardAlpha" operator="arithmetic" k2="-1" k3="1"/>
<feColorMatrix type="matrix" values="0 0 0 0 0 0 0 0 0 0 0 0 0 0 0 0 0 0 0.4 0"/>
<feBlend mode="normal" in2="shape" result="effect1_innerShadow_83_246"/>
</filter>
<filter id="filter2_i_83_246" x="137.92" y="143.287" width="132.418" height="24.84" filterUnits="userSpaceOnUse" color-interpolation-filters="sRGB">
<feFlood flood-opacity="0" result="BackgroundImageFix"/>
<feBlend mode="normal" in="SourceGraphic" in2="BackgroundImageFix" result="shape"/>
<feColorMatrix in="SourceAlpha" type="matrix" values="0 0 0 0 0 0 0 0 0 0 0 0 0 0 0 0 0 0 127 0" result="hardAlpha"/>
<feOffset dx="2" dy="1"/>
<feGaussianBlur stdDeviation="2"/>
<feComposite in2="hardAlpha" operator="arithmetic" k2="-1" k3="1"/>
<feColorMatrix type="matrix" values="0 0 0 0 0 0 0 0 0 0 0 0 0 0 0 0 0 0 0.4 0"/>
<feBlend mode="normal" in2="shape" result="effect1_innerShadow_83_246"/>
</filter>
<linearGradient id="paint0_linear_83_246" x1="281" y1="197.839" x2="401.178" y2="194.254" gradientUnits="userSpaceOnUse">
<stop stop-color="#6511A6"/>
<stop offset="1" stop-color="white"/>
</linearGradient>
<linearGradient id="paint1_linear_83_246" x1="79" y1="197.839" x2="-35.902" y2="201.195" gradientUnits="userSpaceOnUse">
<stop stop-color="#6511A6"/>
<stop offset="1" stop-color="white"/>
</linearGradient>
<linearGradient id="paint2_linear_83_246" x1="281.795" y1="87.8391" x2="276.634" y2="-81.2933" gradientUnits="userSpaceOnUse">
<stop stop-color="#6511A6"/>
<stop offset="1" stop-color="white"/>
</linearGradient>
<linearGradient id="paint3_linear_83_246" x1="280" y1="188.839" x2="279.769" y2="224.478" gradientUnits="userSpaceOnUse">
<stop stop-color="#6511A6"/>
<stop offset="1" stop-color="white"/>
</linearGradient>
<linearGradient id="paint4_linear_83_246" x1="168.506" y1="5.43716" x2="169.589" y2="109.041" gradientUnits="userSpaceOnUse">
<stop offset="0.248412" stop-color="#7C18C9"/>
<stop offset="1" stop-color="#7C18C9" stop-opacity="0"/>
</linearGradient>
<linearGradient id="paint5_linear_83_246" x1="7.94633e-06" y1="132.892" x2="125.533" y2="130.105" gradientUnits="userSpaceOnUse">
<stop offset="0.248412" stop-color="#7C18C9"/>
<stop offset="1" stop-color="#7C18C9" stop-opacity="0"/>
</linearGradient>
</defs>
</svg>
