<?xml version="1.0" encoding="UTF-8" standalone="no"?>
<svg
   height="40"
   viewBox="0 -960 960 960"
   width="40"
   version="1.1"
   id="svg3777"
   sodipodi:docname="account_circle_FILL1_wght300_GRAD0_opsz40.svg"
   inkscape:version="1.2.1 (9c6d41e410, 2022-07-14)"
   xmlns:inkscape="http://www.inkscape.org/namespaces/inkscape"
   xmlns:sodipodi="http://sodipodi.sourceforge.net/DTD/sodipodi-0.dtd"
   xmlns="http://www.w3.org/2000/svg"
   xmlns:svg="http://www.w3.org/2000/svg">
  <defs
     id="defs3781" />
  <sodipodi:namedview
     id="namedview3779"
     pagecolor="#ffffff"
     bordercolor="#000000"
     borderopacity="0.25"
     inkscape:showpageshadow="2"
     inkscape:pageopacity="0.0"
     inkscape:pagecheckerboard="0"
     inkscape:deskcolor="#d1d1d1"
     showgrid="false"
     inkscape:zoom="2.085965"
     inkscape:cx="13.423044"
     inkscape:cy="67.594614"
     inkscape:window-width="1680"
     inkscape:window-height="987"
     inkscape:window-x="-8"
     inkscape:window-y="-8"
     inkscape:window-maximized="1"
     inkscape:current-layer="svg3777" />
  <path
     d="M234.975-258.153q56.949-38.257 116.32-59.231Q410.667-338.358 480-338.358q69.333 0 128.91 20.974t116.525 59.231q41.513-47.359 62.911-102.77 21.398-55.41 21.398-119.077 0-138.692-95.526-234.218Q618.692-809.744 480-809.744t-234.218 95.526Q150.256-618.692 150.256-480q0 63.667 21.603 119.077 21.603 55.411 63.116 102.77Zm244.901-196.72q-54.235 0-91.311-37.2-37.077-37.201-37.077-91.436 0-54.234 37.201-91.311 37.2-37.077 91.435-37.077t91.311 37.201q37.077 37.201 37.077 91.435 0 54.235-37.201 91.312-37.2 37.076-91.435 37.076Zm-.146 354.872q-78.995 0-148.427-29.77-69.431-29.769-120.802-81.41-51.372-51.64-80.936-120.752-29.564-69.111-29.564-148.4 0-79.033 29.77-148.273 29.769-69.239 81.41-120.547 51.64-51.307 120.752-81.076 69.111-29.77 148.4-29.77 79.033 0 148.273 29.77 69.239 29.769 120.547 81.076 51.307 51.308 81.076 120.654 29.77 69.345 29.77 148.322 0 79.232-29.77 148.294-29.769 69.062-81.076 120.702-51.308 51.641-120.74 81.41-69.431 29.77-148.683 29.77Z"
     id="path3775"
     style="fill:#a8a8a8;fill-opacity:1" />
</svg>
