<?xml version="1.0" encoding="UTF-8" standalone="no"?>
<svg
   height="40"
   viewBox="0 -960 960 960"
   width="40"
   version="1.1"
   id="svg16031"
   sodipodi:docname="add_FILL0_wght300_GRAD0_opsz40.svg"
   inkscape:version="1.2.1 (9c6d41e410, 2022-07-14)"
   xmlns:inkscape="http://www.inkscape.org/namespaces/inkscape"
   xmlns:sodipodi="http://sodipodi.sourceforge.net/DTD/sodipodi-0.dtd"
   xmlns="http://www.w3.org/2000/svg"
   xmlns:svg="http://www.w3.org/2000/svg">
  <defs
     id="defs16035" />
  <sodipodi:namedview
     id="namedview16033"
     pagecolor="#ffffff"
     bordercolor="#000000"
     borderopacity="0.25"
     inkscape:showpageshadow="2"
     inkscape:pageopacity="0.0"
     inkscape:pagecheckerboard="0"
     inkscape:deskcolor="#d1d1d1"
     showgrid="false"
     inkscape:zoom="5.9"
     inkscape:cx="3.559322"
     inkscape:cy="20"
     inkscape:window-width="1680"
     inkscape:window-height="987"
     inkscape:window-x="-8"
     inkscape:window-y="-8"
     inkscape:window-maximized="1"
     inkscape:current-layer="svg16031" />
  <path
     d="M479.865-210.001q-10.736 0-17.864-7.224t-7.128-17.903v-219.745H235.128q-10.679 0-17.903-7.262-7.224-7.263-7.224-18 0-10.736 7.224-17.864t17.903-7.128h219.745v-219.745q0-10.679 7.262-17.903 7.263-7.224 18-7.224 10.736 0 17.864 7.224t7.128 17.903v219.745h219.745q10.679 0 17.903 7.262 7.224 7.263 7.224 18 0 10.736-7.224 17.864t-17.903 7.128H505.127v219.745q0 10.679-7.262 17.903-7.263 7.224-18 7.224Z"
     id="path16029"
     style="fill:#fffdf7;fill-opacity:1" />
</svg>
