<?xml version="1.0" encoding="UTF-8" standalone="no"?>
<svg
   height="48"
   viewBox="0 -960 960 960"
   width="48"
   version="1.1"
   id="svg192"
   sodipodi:docname="add_a_photo_FILL0_wght300_GRAD0_opsz48.svg"
   inkscape:version="1.2.1 (9c6d41e410, 2022-07-14)"
   xmlns:inkscape="http://www.inkscape.org/namespaces/inkscape"
   xmlns:sodipodi="http://sodipodi.sourceforge.net/DTD/sodipodi-0.dtd"
   xmlns="http://www.w3.org/2000/svg"
   xmlns:svg="http://www.w3.org/2000/svg">
  <defs
     id="defs196" />
  <sodipodi:namedview
     id="namedview194"
     pagecolor="#ffffff"
     bordercolor="#000000"
     borderopacity="0.25"
     inkscape:showpageshadow="2"
     inkscape:pageopacity="0.0"
     inkscape:pagecheckerboard="0"
     inkscape:deskcolor="#d1d1d1"
     showgrid="false"
     inkscape:zoom="10.930692"
     inkscape:cx="29.36685"
     inkscape:cy="26.71377"
     inkscape:window-width="1680"
     inkscape:window-height="987"
     inkscape:window-x="-8"
     inkscape:window-y="-8"
     inkscape:window-maximized="1"
     inkscape:current-layer="text456" />
  <g
     id="g2630"
     transform="matrix(0.27059259,0,0,0.27059259,153.73116,-337.55506)">
    <g
       id="g13409"
       transform="translate(1.8006156e-5,-39.385859)">
      <g
         aria-label="Inserir imagem"
         id="text456"
         style="font-weight:600;font-size:426.667px;font-family:Quicksand;-inkscape-font-specification:'Quicksand Semi-Bold';opacity:0.99;fill:#1c1b1f;stroke:#000000;stroke-width:180.359;stroke-opacity:0;stop-color:#000000"
         transform="translate(0,295.64742)">
        <g
           id="g14181">
          <path
             d="m 1213.198,-397.28375 c 93.7955,0 172.4709,-31.77768 236.0263,-95.33303 63.5554,-63.55536 95.3331,-142.23081 95.3331,-236.02631 0,-93.7969 -31.7777,-172.25721 -95.3331,-235.38091 -63.5554,-63.1236 -142.2308,-94.6855 -236.0263,-94.6855 -93.7969,0 -172.2572,31.5619 -235.38092,94.6855 -63.1251,63.1237 -94.68764,141.58401 -94.68764,235.38091 0,93.7955 31.56254,172.47095 94.68764,236.02631 63.12372,63.55535 141.58402,95.33303 235.38092,95.33303 z m -676.95378,294.00487 c -32.97742,0 -61.43619,-11.97077 -85.37632,-35.9123 -23.94153,-23.94013 -35.9123,-52.3989 -35.9123,-85.37632 v -1008.1512 c 0,-32.236 11.97006,-60.5098 35.91019,-84.8214 23.94154,-24.3115 52.40101,-36.4673 85.37843,-36.4673 h 289.63619 l 117.24797,-137.9476 c 10.78225,-13.6751 24.13,-23.9128 40.0433,-30.7132 15.9134,-6.8004 33.18432,-10.2006 51.81252,-10.2006 h 452.9737 c 17.1819,0 31.585,5.8116 43.2095,17.4348 11.6232,11.6232 17.4348,26.0264 17.4348,43.2096 v 106.814 106.8139 l -1012.35798,25.8778 h -25.87779 v 1008.1512 c 0,7.00782 2.56066,13.07239 7.68199,18.19372 5.12131,5.12131 11.18658,7.68197 18.1958,7.68197 H 1891.4446 c 7.5474,0 13.7466,-2.56066 18.5974,-7.68197 4.8522,-5.12133 7.2783,-11.1859 7.2783,-18.19372 v -802.7729 h 35.1723 c -5.8768,0 -6.0064,1.7344 -0.3889,5.2033 5.6189,3.4675 12.8244,8.1108 21.6164,13.9302 8.792,5.8193 17.4922,12.39046 26.1006,19.71359 8.6084,7.3232 12.9126,14.58961 12.9126,21.79931 v 742.1265 c 0,32.97742 -12.1558,61.43619 -36.4673,85.37632 -24.3115,23.94153 -52.5853,35.9123 -84.8214,35.9123 z M 1918.1298,-1396.0585 h -129.8621 c -13.5166,0 -24.8469,-4.6111 -33.9907,-13.8335 -9.1438,-9.2223 -13.7158,-20.6499 -13.7158,-34.283 0,-13.633 4.572,-24.924 13.7158,-33.873 9.1438,-8.9476 20.4741,-13.4214 33.9907,-13.4214 h 129.8621 v -131.1549 c 0,-13.5167 4.6111,-24.847 13.8333,-33.9908 9.2224,-9.1438 20.65,-13.7157 34.283,-13.7157 13.6331,0 24.9241,4.5719 33.8731,13.7157 8.9476,9.1438 13.4214,20.4741 13.4214,33.9908 v 131.1549 h 131.1549 c 13.5167,0 24.847,4.6112 33.9908,13.8335 9.1438,9.2223 13.7157,20.65 13.7157,34.283 0,13.633 -4.5719,24.924 -13.7157,33.873 -9.1438,8.9476 -20.4741,13.4214 -33.9908,13.4214 h -131.1549 v 129.8619 c 0,13.5167 -4.6112,24.847 -13.8335,33.9908 -9.2222,9.1438 -20.6499,13.7157 -34.283,13.7157 -13.633,0 -24.924,-4.5719 -33.8729,-13.7157 -8.9476,-9.1438 -13.4214,-20.4741 -13.4214,-33.9908 z m -1407.76337,163.3398 v 1034.02689 z"
             id="path190"
             style="fill:#1c1b1f;fill-opacity:1;stroke-width:2.10234"
             sodipodi:nodetypes="ssssscscsscsscsccssscsccccsssscscccsssscsscssscscssscscssscscssscscccc"
             transform="translate(-3.2237853e-6,-295.64741)" />
          <path
             d="m -241.07121,223.63082 q -0.42667,9.38668 -7.25334,15.78668 -6.40001,5.97334 -15.36001,5.97334 -9.81335,0 -16.21335,-5.97334 -5.97334,-6.4 -5.97334,-15.78668 V -31.516039 q 0,-9.386674 6.40001,-15.360012 6.4,-6.400005 16.64001,-6.400005 8.53334,0 14.93334,6.400005 6.82668,5.973338 6.82668,15.360012 z"
             id="path2632" />
          <path
             d="m -61.017656,15.843997 q 30.293356,0 46.933369,12.80001 16.6400124,12.373342 23.0400173,33.706692 6.8266717,20.906683 6.8266717,46.933371 v 114.34675 q 0,9.38668 -6.4000047,15.78668 -5.9733379,5.97334 -14.9333447,5.97334 -9.3866736,0 -15.3600116,-5.97334 -5.973338,-6.4 -5.973338,-15.78668 V 109.71074 q 0,-15.360017 -4.26667,-27.306692 -4.26667,-12.373343 -14.933345,-19.626682 -10.240008,-7.680006 -29.013355,-7.680006 -17.493347,0 -30.720023,7.680006 -13.22668,7.253339 -20.90668,19.626682 -7.25334,11.946675 -7.25334,27.306692 v 113.92008 q 0,9.38668 -6.40001,15.78668 -5.97333,5.97334 -14.93334,5.97334 -9.38668,0 -15.36001,-5.97334 -5.97334,-6.4 -5.97334,-15.78668 V 42.724017 q 0,-9.386673 5.97334,-15.360011 5.97333,-6.400005 15.36001,-6.400005 8.96001,0 14.93334,6.400005 6.40001,5.973338 6.40001,15.360011 v 23.893352 l -7.68001,4.26667 q 2.98667,-9.386674 10.24001,-18.773348 7.68001,-9.813341 18.34668,-17.920014 10.66668,-8.533339 23.893352,-13.226676 13.226677,-5.120004 28.160022,-5.120004 z"
             id="path2634" />
          <path
             d="m 61.862516,210.40415 q -3.840003,-5.97334 -3.413336,-13.65335 0.426667,-8.10667 8.960007,-13.65334 5.973338,-3.84001 12.373343,-2.98667 6.826672,0.42667 12.80001,6.4 11.94668,13.22668 26.45335,20.90669 14.93335,7.68 35.84003,7.68 8.53334,-0.42666 17.49335,-2.56 8.96,-2.56 15.36001,-8.53334 6.4,-6.4 6.4,-18.34668 0,-10.66668 -6.82667,-17.06668 -6.82667,-6.4 -17.92001,-10.24001 -11.09334,-4.26667 -23.89335,-7.68 -13.65335,-3.84001 -27.73336,-8.53334 -13.65334,-4.69334 -24.746683,-11.94668 -11.093342,-7.68001 -18.346681,-19.62668 -6.826672,-11.946677 -6.826672,-29.440023 0,-20.053349 11.093342,-34.560027 11.520009,-14.506677 29.440024,-22.61335 18.34668,-8.106673 39.68003,-8.106673 12.37334,0 26.02669,3.413336 13.65334,2.986669 26.45335,9.813341 12.80001,6.826671 22.18668,17.920013 4.26667,5.546671 4.69334,13.226677 0.85333,7.680006 -6.82667,13.653344 -5.12001,4.26667 -12.37335,3.840003 -7.25333,-0.426667 -11.94667,-4.693337 -8.10667,-10.240008 -20.90668,-15.786679 -12.80001,-5.973338 -29.01336,-5.973338 -8.10667,0 -17.06668,2.560002 -8.53334,2.133335 -14.50668,8.106673 -5.97333,5.973338 -5.97333,17.493347 0,10.666674 6.82667,17.066679 7.25334,6.400002 18.77335,10.666672 11.52,4.26667 25.17335,7.68001 13.22667,3.41333 26.02668,8.10667 13.22668,4.69334 23.46669,12.37334 10.66667,7.25334 17.06668,19.20002 6.82667,11.52001 6.82667,29.44002 0,20.90668 -12.37334,35.84003 -11.94668,14.50668 -30.72003,22.18668 -18.34668,7.68001 -38.82669,7.68001 -24.32002,0 -48.64004,-8.53334 -23.893351,-8.96001 -40.533364,-30.72002 z"
             id="path2636" />
          <path
             d="m 383.56972,249.65751 q -35.41336,0 -61.44005,-14.50668 -26.02668,-14.93334 -40.53336,-40.53336 -14.08001,-26.02669 -14.08001,-59.30672 0,-37.546691 14.93334,-64.000044 15.36001,-26.880021 39.68003,-40.960031 24.32002,-14.506678 51.62671,-14.506678 20.90668,0 39.68003,8.53334 18.77335,8.106673 33.28002,23.040017 14.93335,14.506678 23.46669,34.560027 8.53334,19.626679 8.96001,43.093369 -0.42667,8.53334 -6.82668,14.08001 -6.4,5.54667 -14.93334,5.54667 H 291.40965 l -10.24001,-36.2667 h 160.42679 l -8.10667,7.68001 v -10.66667 q -0.85334,-14.93335 -9.81334,-26.026691 -8.96001,-11.520009 -22.18669,-17.493347 -13.22667,-6.400005 -27.73335,-6.400005 -12.80001,0 -24.74669,4.26667 -11.52001,3.840003 -20.90668,12.80001 -8.96001,8.960007 -14.50668,23.893351 -5.12,14.506682 -5.12,36.266692 0,23.46669 9.81334,40.96003 9.81334,17.49335 26.45335,27.30669 16.64002,9.38668 36.69336,9.38668 15.78668,0 26.02669,-2.98667 10.24001,-3.41334 17.06668,-8.10668 6.82667,-4.69333 11.94668,-8.96 6.4,-3.84001 12.80001,-3.84001 7.68,0 12.80001,5.54667 5.12,5.12001 5.12,12.37335 0,9.38667 -9.38667,17.06668 -11.52001,11.09334 -32.00003,19.62668 -20.05335,8.53334 -42.24003,8.53334 z"
             id="path2638" />
          <path
             d="m 548.69015,245.39084 q -9.38667,0 -15.36001,-5.97334 -5.97334,-6.4 -5.97334,-15.78668 V 42.724017 q 0,-9.386673 5.97334,-15.360011 5.97334,-6.400005 15.36001,-6.400005 8.96001,0 14.93335,6.400005 6.4,5.973338 6.4,15.360011 V 90.51072 l -4.26667,-18.34668 q 3.41334,-11.946676 10.24001,-22.186684 7.25334,-10.240008 17.06668,-17.920013 9.81334,-7.680006 21.76002,-11.946676 12.37334,-4.26667 25.60001,-4.26667 11.09335,0 19.20002,5.973338 8.10667,5.973338 8.10667,14.933344 0,11.520009 -5.97334,17.06668 -5.97333,5.120004 -13.22667,5.120004 -6.40001,0 -12.37335,-2.560002 -5.97333,-2.986669 -14.08001,-2.986669 -8.96,0 -18.34668,4.693337 -9.38667,4.693337 -17.06668,14.080011 -7.68,8.960007 -12.37334,21.333349 -4.26667,12.373341 -4.26667,27.733351 v 102.40008 q 0,9.38668 -6.4,15.78668 -5.97334,5.97334 -14.93335,5.97334 z"
             id="path2640" />
          <path
             d="m 745.81,223.63082 q 0,9.38668 -5.97334,15.78668 -5.97334,5.97334 -15.36001,5.97334 -8.96001,0 -15.36002,-5.97334 -5.97333,-6.4 -5.97333,-15.78668 V 41.017349 q 0,-9.386673 5.97333,-15.360011 6.40001,-6.400005 15.36002,-6.400005 9.38667,0 15.36001,6.400005 5.97334,5.973338 5.97334,15.360011 z M 724.04998,-8.9026887 q -12.37334,0 -17.92001,-4.2666703 -5.54668,-4.693337 -5.54668,-15.360011 v -6.826672 q 0,-10.666675 5.97334,-14.933345 5.97334,-4.26667 17.92002,-4.26667 12.80001,0 18.34668,4.693337 5.54667,4.26667 5.54667,14.506678 v 6.826672 q 0,11.093341 -5.97334,15.360011 -5.54667,4.2666703 -18.34668,4.2666703 z"
             id="path2642" />
          <path
             d="m 824.74337,245.39084 q -9.38667,0 -15.36001,-5.97334 -5.97334,-6.4 -5.97334,-15.78668 V 42.724017 q 0,-9.386673 5.97334,-15.360011 5.97334,-6.400005 15.36001,-6.400005 8.96001,0 14.93335,6.400005 6.4,5.973338 6.4,15.360011 V 90.51072 l -4.26667,-18.34668 q 3.41334,-11.946676 10.24001,-22.186684 7.25334,-10.240008 17.06668,-17.920013 9.81334,-7.680006 21.76002,-11.946676 12.37334,-4.26667 25.60002,-4.26667 11.09334,0 19.20001,5.973338 8.10667,5.973338 8.10667,14.933344 0,11.520009 -5.97333,17.06668 -5.97334,5.120004 -13.22668,5.120004 -6.4,0 -12.37334,-2.560002 -5.97334,-2.986669 -14.08001,-2.986669 -8.96001,0 -18.34668,4.693337 -9.38668,4.693337 -17.06668,14.080011 -7.68001,8.960007 -12.37335,21.333349 -4.26667,12.373341 -4.26667,27.733351 v 102.40008 q 0,9.38668 -6.4,15.78668 -5.97334,5.97334 -14.93335,5.97334 z"
             id="path2644" />
          <path
             d="m 1140.4767,223.63082 q 0,9.38668 -5.9734,15.78668 -5.9733,5.97334 -15.36,5.97334 -8.96,0 -15.36,-5.97334 -5.9733,-6.4 -5.9733,-15.78668 V 41.017349 q 0,-9.386673 5.9733,-15.360011 6.4,-6.400005 15.36,-6.400005 9.3867,0 15.36,6.400005 5.9734,5.973338 5.9734,15.360011 z m -21.76,-232.5335087 q -12.3734,0 -17.92,-4.2666703 -5.5467,-4.693337 -5.5467,-15.360011 v -6.826672 q 0,-10.666675 5.9733,-14.933345 5.9734,-4.26667 17.92,-4.26667 12.8,0 18.3467,4.693337 5.5467,4.26667 5.5467,14.506678 v 6.826672 q 0,11.093341 -5.9734,15.360011 -5.5466,4.2666703 -18.3466,4.2666703 z"
             id="path2646" />
          <path
             d="m 1310.7167,17.123998 q 31.5734,0 48.6401,15.786679 17.0667,15.360011 22.6133,41.813365 l -6.8266,-2.133335 2.9866,-6.826672 q 5.5467,-11.093342 16.64,-22.186684 11.52,-11.520008 27.3067,-18.773347 15.7867,-7.680006 33.7067,-7.680006 29.44,0 45.6534,12.80001 16.2133,12.373342 22.6133,33.706692 6.4,20.906683 6.4,46.93337 v 113.06675 q 0,9.38668 -5.9733,15.78668 -5.9733,5.97334 -15.36,5.97334 -8.96,0 -15.36,-5.97334 -5.9734,-6.4 -5.9734,-15.78668 V 110.99074 q 0,-14.933349 -4.2666,-27.306691 -3.84,-12.373343 -14.08,-19.626682 -9.8134,-7.680006 -27.3067,-7.680006 -16.64,0 -29.8667,7.680006 -12.8,7.253339 -20.0534,19.626682 -7.2533,12.373342 -7.2533,27.306691 v 112.64008 q 0,9.38668 -5.9733,15.78668 -5.9734,5.97334 -15.3601,5.97334 -9.3866,0 -15.36,-5.97334 -5.9733,-6.4 -5.9733,-15.78668 V 110.56407 q 0,-14.933346 -4.2667,-27.306688 -3.84,-12.373343 -13.6533,-19.626682 -9.8134,-7.253339 -27.3067,-7.253339 -16.64,0 -29.44,7.253339 -12.8,7.253339 -20.0534,19.626682 -6.8267,12.373342 -6.8267,27.306688 v 113.06675 q 0,9.38668 -6.4,15.78668 -5.9733,5.97334 -14.9333,5.97334 -9.3867,0 -15.36,-5.97334 -5.9733,-6.4 -5.9733,-15.78668 V 42.724017 q 0,-9.386673 5.9733,-15.360011 5.9733,-6.400005 15.36,-6.400005 8.96,0 14.9333,6.400005 6.4,5.973338 6.4,15.360011 V 67.89737 l -8.1066,4.693337 q 2.9866,-9.386674 9.8133,-19.200015 6.8267,-9.813341 17.0667,-17.920014 10.6667,-8.106672 23.4667,-13.226676 12.8,-5.120004 27.7333,-5.120004 z"
             id="path2648" />
          <path
             d="m 1774.0774,17.550665 q 9.3867,0 15.36,6.400005 5.9734,5.973338 5.9734,15.360011 V 223.63082 q 0,9.38668 -5.9734,15.78668 -5.9733,5.97334 -15.36,5.97334 -8.96,0 -15.36,-5.97334 -5.9733,-6.4 -5.9733,-15.78668 V 192.9108 l 8.96,1.28 q 0,7.68001 -6.4,17.06668 -5.9734,9.38667 -16.64,18.34668 -10.6667,8.53334 -25.1734,14.50668 -14.5067,5.54667 -31.1467,5.54667 -29.44,0 -52.9067,-14.93335 -23.4667,-15.36001 -37.12,-41.81336 -13.6534,-26.45335 -13.6534,-60.16005 0,-34.560024 13.6534,-60.58671 13.6533,-26.453354 36.6933,-41.386698 23.4667,-14.933345 52.0534,-14.933345 18.3467,0 33.7067,5.973338 15.7867,5.973338 27.3067,15.360011 11.52,9.386674 17.4933,20.053349 6.4001,10.240008 6.4001,19.626682 l -13.2267,1.280001 V 39.310681 q 0,-8.960006 5.9733,-15.360011 6.4,-6.400005 15.36,-6.400005 z m -87.04,192.853485 q 20.0533,0 35.4133,-10.24001 15.36,-10.24001 23.8934,-27.73336 8.5333,-17.92001 8.5333,-39.68003 0,-22.18668 -8.5333,-39.680028 -8.5334,-17.493346 -23.8934,-27.733354 -15.36,-10.240008 -35.4133,-10.240008 -19.6267,0 -34.9867,10.240008 -14.9334,10.240008 -23.8934,27.733354 -8.5333,17.493348 -8.5333,39.680028 0,21.76002 8.5333,39.68003 8.96,17.49335 23.8934,27.73336 15.36,10.24001 34.9867,10.24001 z"
             id="path2650" />
          <path
             d="m 1948.5842,15.843997 q 18.3467,0 33.7067,5.973338 15.36,5.973338 26.4534,15.360011 11.52,8.960007 17.92,18.773348 6.4,9.813341 6.4,17.06668 l -9.8133,0.426667 v -34.13336 q 0,-8.960006 5.9733,-15.360011 5.9733,-6.400005 15.36,-6.400005 9.3867,0 15.36,6.400005 5.9733,5.973338 5.9733,15.360011 V 227.47082 q 0,36.2667 -15.36,58.88005 -15.36,23.04002 -40.96,33.70669 -25.1733,10.66668 -55.4667,10.66668 -10.6667,0 -25.1734,-2.98667 -14.5066,-2.56 -26.88,-6.40001 -11.9467,-3.84 -16.64,-7.68 -9.8133,-5.12001 -13.2267,-11.94668 -2.9866,-6.82667 0,-13.65334 4.2667,-9.38668 11.52,-11.52001 7.2534,-2.13334 16.6401,1.28 4.2666,1.28 13.2266,4.69334 8.96,3.41333 20.0534,5.97333 11.0933,2.98667 20.9067,2.98667 34.1333,0 51.2,-15.78667 17.4934,-15.78668 17.4934,-43.09337 V 194.1908 l 4.6933,2.98667 q -1.28,8.96001 -8.1067,18.34668 -6.4,8.96001 -17.0667,16.64001 -10.6666,7.68001 -24.7467,12.80001 -13.6533,4.69334 -28.16,4.69334 -30.2933,0 -54.1867,-14.93335 -23.8933,-15.36001 -37.9733,-41.38669 -14.0801,-26.45336 -14.0801,-60.58672 0,-34.133357 14.0801,-60.160043 14.08,-26.453354 37.5467,-41.386698 23.8933,-15.360012 53.3333,-15.360012 z m 6.4,39.253363 q -20.9067,0 -36.6933,10.240008 -15.7867,10.240008 -24.7467,27.733354 -8.96,17.493348 -8.96,39.680028 0,22.18669 8.96,39.68003 8.96,17.49335 24.7467,27.73336 15.7866,10.24001 36.6933,10.24001 20.9067,0 36.6934,-9.81335 15.7867,-10.24 24.7467,-27.73335 8.96,-17.92001 8.96,-40.1067 0,-22.18668 -8.96,-39.680028 -8.96,-17.920013 -24.7467,-27.733354 -15.7867,-10.240008 -36.6934,-10.240008 z"
             id="path2652" />
          <path
             d="m 2221.2242,249.65751 q -35.4134,0 -61.44,-14.50668 -26.0267,-14.93334 -40.5334,-40.53336 -14.08,-26.02669 -14.08,-59.30672 0,-37.546691 14.9333,-64.000044 15.36,-26.880021 39.6801,-40.960031 24.32,-14.506678 51.6267,-14.506678 20.9066,0 39.68,8.53334 18.7733,8.106673 33.28,23.040017 14.9334,14.506678 23.4667,34.560027 8.5333,19.626679 8.96,43.093369 -0.4267,8.53334 -6.8267,14.08001 -6.4,5.54667 -14.9333,5.54667 h -165.9735 l -10.24,-36.2667 h 160.4268 l -8.1067,7.68001 v -10.66667 q -0.8533,-14.93335 -9.8133,-26.026691 -8.96,-11.520009 -22.1867,-17.493347 -13.2267,-6.400005 -27.7333,-6.400005 -12.8001,0 -24.7467,4.26667 -11.52,3.840003 -20.9067,12.80001 -8.96,8.960007 -14.5067,23.893351 -5.12,14.506682 -5.12,36.266692 0,23.46669 9.8133,40.96003 9.8134,17.49335 26.4534,27.30669 16.64,9.38668 36.6934,9.38668 15.7866,0 26.0267,-2.98667 10.24,-3.41334 17.0666,-8.10668 6.8267,-4.69333 11.9467,-8.96 6.4,-3.84001 12.8,-3.84001 7.68,0 12.8,5.54667 5.12,5.12001 5.12,12.37335 0,9.38667 -9.3866,17.06668 -11.5201,11.09334 -32.0001,19.62668 -20.0533,8.53334 -42.24,8.53334 z"
             id="path2654" />
          <path
             d="m 2477.6512,17.123998 q 31.5733,0 48.64,15.786679 17.0667,15.360011 22.6134,41.813365 l -6.8267,-2.133335 2.9867,-6.826672 q 5.5466,-11.093342 16.64,-22.186684 11.52,-11.520008 27.3067,-18.773347 15.7866,-7.680006 33.7067,-7.680006 29.44,0 45.6533,12.80001 16.2134,12.373342 22.6134,33.706692 6.4,20.906683 6.4,46.93337 v 113.06675 q 0,9.38668 -5.9734,15.78668 -5.9733,5.97334 -15.36,5.97334 -8.96,0 -15.36,-5.97334 -5.9733,-6.4 -5.9733,-15.78668 V 110.99074 q 0,-14.933349 -4.2667,-27.306691 -3.84,-12.373343 -14.08,-19.626682 -9.8133,-7.680006 -27.3067,-7.680006 -16.64,0 -29.8667,7.680006 -12.8,7.253339 -20.0533,19.626682 -7.2534,12.373342 -7.2534,27.306691 v 112.64008 q 0,9.38668 -5.9733,15.78668 -5.9733,5.97334 -15.36,5.97334 -9.3867,0 -15.36,-5.97334 -5.9734,-6.4 -5.9734,-15.78668 V 110.56407 q 0,-14.933346 -4.2666,-27.306688 -3.84,-12.373343 -13.6534,-19.626682 -9.8133,-7.253339 -27.3067,-7.253339 -16.64,0 -29.44,7.253339 -12.8,7.253339 -20.0533,19.626682 -6.8267,12.373342 -6.8267,27.306688 v 113.06675 q 0,9.38668 -6.4,15.78668 -5.9733,5.97334 -14.9334,5.97334 -9.3866,0 -15.36,-5.97334 -5.9733,-6.4 -5.9733,-15.78668 V 42.724017 q 0,-9.386673 5.9733,-15.360011 5.9734,-6.400005 15.36,-6.400005 8.9601,0 14.9334,6.400005 6.4,5.973338 6.4,15.360011 V 67.89737 l -8.1067,4.693337 q 2.9867,-9.386674 9.8134,-19.200015 6.8266,-9.813341 17.0666,-17.920014 10.6667,-8.106672 23.4667,-13.226676 12.8,-5.120004 27.7334,-5.120004 z"
             id="path2656" />
          <g
             aria-label="*"
             id="text14159"
             style="font-size:788.393px;opacity:0.99;stroke-width:666.533;stop-color:#000000"
             transform="translate(169.08852,549.85638)">
            <path
               d="m 2613.202,-605.65914 q -9.4607,0 -15.7679,-7.09554 -6.3071,-7.09553 -5.5187,-18.13304 l 6.3071,-65.43663 q 0.7884,-2.36518 -0.7884,-3.15357 -1.5767,-1.57679 -3.1535,0 l -55.1875,39.41966 q -7.884,6.30714 -17.3447,4.73036 -9.4607,-2.36518 -14.9795,-11.8259 -6.3071,-11.0375 -3.1535,-19.70983 3.9419,-8.67232 13.4026,-12.61429 l 61.4947,-27.59376 q 2.3652,-0.78839 2.3652,-2.36518 0,-1.57678 -2.3652,-2.36518 l -61.4947,-28.38215 q -9.4607,-3.94197 -12.6142,-13.40268 -3.1536,-9.46072 2.3651,-18.92144 5.5188,-9.46072 14.9795,-11.0375 9.4607,-1.57679 17.3447,3.94196 l 55.1875,39.41966 q 1.5768,1.57679 3.1535,0.78839 1.5768,-0.78839 0.7884,-3.15357 l -6.3071,-65.43663 q -0.7884,-11.0375 5.5187,-18.13304 7.0956,-7.09554 17.3447,-7.09554 10.2491,0 16.5562,7.09554 6.3072,7.09554 4.7304,18.13304 l -6.3071,65.43663 q -0.7884,2.36518 0.7884,3.15357 1.5767,0.7884 3.9419,-0.78839 l 54.3991,-38.63126 q 8.6724,-6.30715 18.1331,-3.94197 9.4607,1.57679 14.9795,11.0375 6.3071,10.24912 2.3651,18.92144 -3.9419,8.67232 -13.4026,12.61429 l -60.7063,28.38215 q -2.3652,0.7884 -2.3652,2.36518 0,1.57679 2.3652,2.36518 l 60.7063,27.59376 q 10.2491,4.73036 13.4026,14.19108 3.1536,8.67232 -2.3651,18.13304 -5.5188,9.46072 -14.9795,11.8259 -9.4607,1.57678 -18.1331,-4.73036 l -54.3991,-39.41966 q -2.3652,-1.57679 -3.9419,0 -1.5768,0.78839 -0.7884,3.15357 l 6.3071,65.43663 q 1.5768,11.03751 -5.5187,18.13304 -6.3072,7.09554 -17.3447,7.09554 z"
               style="stroke-width:666.534"
               id="path14161" />
          </g>
        </g>
      </g>
    </g>
  </g>
</svg>
