<svg xmlns="http://www.w3.org/2000/svg" height="24" viewBox="0 -960 960 960" width="24"><path d="M292.309-140.001q-30.308 0-51.308-21t-21-51.308V-720h-10q-12.769 0-21.384-8.615-8.616-8.615-8.616-21.384t8.616-21.384q8.615-8.616 21.384-8.616H360q0-15.076 10.538-25.23 10.539-10.154 25.616-10.154h167.692q15.077 0 25.616 10.154Q600-795.075 600-779.999h149.999q12.769 0 21.384 8.616 8.616 8.615 8.616 21.384t-8.616 21.384Q762.768-720 749.999-720h-10v507.691q0 30.308-21 51.308t-51.308 21H292.309ZM280-720v507.691q0 5.385 3.462 8.847 3.462 3.462 8.847 3.462h375.382q5.385 0 8.847-3.462 3.462-3.462 3.462-8.847V-720H280Zm96.155 410.001q0 12.769 8.615 21.384T406.154-280q12.769 0 21.384-8.615 8.616-8.615 8.616-21.384v-300.002q0-12.769-8.616-21.384Q418.923-640 406.154-640t-21.384 8.615q-8.615 8.615-8.615 21.384v300.002Zm147.691 0q0 12.769 8.616 21.384Q541.077-280 553.846-280t21.384-8.615q8.615-8.615 8.615-21.384v-300.002q0-12.769-8.615-21.384T553.846-640q-12.769 0-21.384 8.615-8.616 8.615-8.616 21.384v300.002ZM280-720v507.691q0 5.385 3.462 8.847 3.462 3.462 8.847 3.462H280v-520Z"/></svg>