<?xml version="1.0" encoding="UTF-8" standalone="no"?>
<svg
   height="40"
   viewBox="0 -960 960 960"
   width="40"
   version="1.1"
   id="svg1917"
   sodipodi:docname="headphones_FILL0_wght300_GRAD0_opsz40.svg"
   inkscape:version="1.2.1 (9c6d41e410, 2022-07-14)"
   xmlns:inkscape="http://www.inkscape.org/namespaces/inkscape"
   xmlns:sodipodi="http://sodipodi.sourceforge.net/DTD/sodipodi-0.dtd"
   xmlns="http://www.w3.org/2000/svg"
   xmlns:svg="http://www.w3.org/2000/svg">
  <defs
     id="defs1921" />
  <sodipodi:namedview
     id="namedview1919"
     pagecolor="#ffffff"
     bordercolor="#000000"
     borderopacity="0.25"
     inkscape:showpageshadow="2"
     inkscape:pageopacity="0.0"
     inkscape:pagecheckerboard="0"
     inkscape:deskcolor="#d1d1d1"
     showgrid="false"
     inkscape:zoom="5.9"
     inkscape:cx="3.559322"
     inkscape:cy="20"
     inkscape:window-width="1680"
     inkscape:window-height="987"
     inkscape:window-x="-8"
     inkscape:window-y="-8"
     inkscape:window-maximized="1"
     inkscape:current-layer="svg1917" />
  <path
     d="M202.565-140.001q-25.705 0-44.134-18.43-18.43-18.429-18.43-44.134V-480q0-70.769 26.77-132.615 26.769-61.846 72.768-107.846 46-45.999 107.846-72.768 61.846-26.77 132.615-26.77t132.615 26.77q61.846 26.769 107.846 72.768 45.999 46 72.768 107.846 26.77 61.846 26.77 132.615v277.435q0 25.705-18.43 44.134-18.429 18.43-44.134 18.43h-60.716q-25.904 0-44.234-18.43-18.33-18.429-18.33-44.134v-146.306q0-25.705 18.33-44.134 18.33-18.43 44.234-18.43h73.025V-480q0-121.071-84.329-205.408-84.328-84.336-205.388-84.336t-205.415 84.336Q190.256-601.071 190.256-480v68.565h73.025q25.904 0 44.234 18.43 18.33 18.429 18.33 44.134v146.306q0 25.705-18.33 44.134-18.33 18.43-44.234 18.43h-60.716Zm0-50.255h60.716q5.385 0 8.847-3.462 3.462-3.462 3.462-8.847v-146.306q0-5.129-3.462-8.719t-8.847-3.59h-73.025v158.615q0 5.385 3.462 8.847 3.462 3.462 8.847 3.462Zm494.154 0h60.716q5.385 0 8.847-3.462 3.462-3.462 3.462-8.847V-361.18h-73.025q-5.385 0-8.847 3.59-3.462 3.59-3.462 8.719v146.306q0 5.385 3.462 8.847 3.462 3.462 8.847 3.462Zm-494.154 0h-12.309 85.334-73.025Zm494.154 0H684.41h85.334-73.025Z"
     id="path1915"
     style="fill:#fffdf7;fill-opacity:1" />
</svg>
