<?xml version="1.0" encoding="UTF-8" standalone="no"?>
<svg
   height="40"
   viewBox="0 -960 960 960"
   width="40"
   version="1.1"
   id="svg5895"
   sodipodi:docname="list_FILL0_wght300_GRAD0_opsz40.svg"
   inkscape:version="1.2.1 (9c6d41e410, 2022-07-14)"
   xmlns:inkscape="http://www.inkscape.org/namespaces/inkscape"
   xmlns:sodipodi="http://sodipodi.sourceforge.net/DTD/sodipodi-0.dtd"
   xmlns="http://www.w3.org/2000/svg"
   xmlns:svg="http://www.w3.org/2000/svg">
  <defs
     id="defs5899" />
  <sodipodi:namedview
     id="namedview5897"
     pagecolor="#ffffff"
     bordercolor="#000000"
     borderopacity="0.25"
     inkscape:showpageshadow="2"
     inkscape:pageopacity="0.0"
     inkscape:pagecheckerboard="0"
     inkscape:deskcolor="#d1d1d1"
     showgrid="false"
     inkscape:zoom="5.9"
     inkscape:cx="3.559322"
     inkscape:cy="20"
     inkscape:window-width="1680"
     inkscape:window-height="987"
     inkscape:window-x="-8"
     inkscape:window-y="-8"
     inkscape:window-maximized="1"
     inkscape:current-layer="svg5895" />
  <path
     d="M314.615-619.744q-10.679 0-17.903-7.263-7.224-7.263-7.224-18 0-10.736 7.224-17.864t17.903-7.128h490.257q10.679 0 17.903 7.263 7.224 7.263 7.224 17.999 0 10.737-7.224 17.865-7.224 7.128-17.903 7.128H314.615Zm0 164.871q-10.679 0-17.903-7.262-7.224-7.263-7.224-18 0-10.736 7.224-17.864t17.903-7.128h490.257q10.679 0 17.903 7.262 7.224 7.263 7.224 18 0 10.736-7.224 17.864t-17.903 7.128H314.615Zm0 164.872q-10.679 0-17.903-7.263-7.224-7.263-7.224-17.999 0-10.737 7.224-17.865 7.224-7.128 17.903-7.128h490.257q10.679 0 17.903 7.263 7.224 7.263 7.224 18 0 10.736-7.224 17.864t-17.903 7.128H314.615ZM158.178-616.667q-11.998 0-20.088-8.117-8.089-8.116-8.089-20.115 0-11.998 8.116-20.088 8.117-8.089 20.115-8.089 11.999 0 20.088 8.116 8.09 8.117 8.09 20.115 0 11.999-8.117 20.088-8.116 8.09-20.115 8.09Zm0 164.872q-11.998 0-20.088-8.117-8.089-8.117-8.089-20.115 0-11.998 8.116-20.088 8.117-8.09 20.115-8.09 11.999 0 20.088 8.117 8.09 8.117 8.09 20.115 0 11.998-8.117 20.088-8.116 8.09-20.115 8.09Zm0 164.871q-11.998 0-20.088-8.116-8.089-8.117-8.089-20.115 0-11.999 8.116-20.088 8.117-8.09 20.115-8.09 11.999 0 20.088 8.117 8.09 8.116 8.09 20.115 0 11.998-8.117 20.088-8.116 8.089-20.115 8.089Z"
     id="path5893"
     style="fill:#fffdf7;fill-opacity:1" />
</svg>
