<svg xmlns="http://www.w3.org/2000/svg" height="24" viewBox="0 -960 960 960" width="24"><path d="M624.924-320.924q-8.692-9.923-8.692-21.999 0-12.077 8.692-20.769L701.232-440H394.615q-12.769 0-21.384-8.615t-8.615-21.384q0-12.769 8.615-21.384 8.615-8.616 21.384-8.616h306.617l-76.693-76.692q-8.923-8.923-8.923-20.999 0-12.077 9.308-21.385 8.692-9.307 20.769-9.307 12.076 0 20.768 8.692l124.384 124.383q5.615 5.616 7.923 11.846 2.307 6.231 2.307 13.462 0 7.23-2.307 13.461-2.308 6.231-7.923 11.846L666.077-319.924q-9.538 9.538-21 8.615-11.461-.923-20.153-9.615ZM216.155-120q-30.307 0-51.307-21-21-21-21-51.307v-555.384q0-30.308 21-51.308t51.307-21h238.461q12.769 0 21.385 8.616 8.615 8.615 8.615 21.384t-8.615 21.384Q467.385-760 454.616-760H216.155q-4.616 0-8.462 3.846-3.847 3.847-3.847 8.463v555.384q0 4.616 3.847 8.462 3.846 3.846 8.462 3.846h238.461q12.769 0 21.385 8.616 8.615 8.615 8.615 21.384t-8.615 21.384Q467.385-120 454.616-120H216.155Z"/></svg>