<?xml version="1.0" encoding="UTF-8" standalone="no"?>
<svg
   height="48"
   viewBox="0 -960 960 960"
   width="48"
   version="1.1"
   id="svg6092"
   sodipodi:docname="qr_code_scanner_FILL0_wght300_GRAD0_opsz48.svg"
   inkscape:version="1.2.1 (9c6d41e410, 2022-07-14)"
   xmlns:inkscape="http://www.inkscape.org/namespaces/inkscape"
   xmlns:sodipodi="http://sodipodi.sourceforge.net/DTD/sodipodi-0.dtd"
   xmlns="http://www.w3.org/2000/svg"
   xmlns:svg="http://www.w3.org/2000/svg">
  <defs
     id="defs6096" />
  <sodipodi:namedview
     id="namedview6094"
     pagecolor="#ffffff"
     bordercolor="#000000"
     borderopacity="0.25"
     inkscape:showpageshadow="2"
     inkscape:pageopacity="0.0"
     inkscape:pagecheckerboard="0"
     inkscape:deskcolor="#d1d1d1"
     showgrid="false"
     inkscape:zoom="4.9166667"
     inkscape:cx="4.2711864"
     inkscape:cy="24"
     inkscape:window-width="1680"
     inkscape:window-height="987"
     inkscape:window-x="-8"
     inkscape:window-y="-8"
     inkscape:window-maximized="1"
     inkscape:current-layer="svg6092" />
  <path
     d="M122.498-698.922q-9.728 0-16.112-6.524-6.385-6.524-6.385-16.168v-110.308q0-11.932 8.073-20.004 8.072-8.073 20.004-8.073h110.308q9.644 0 16.168 6.581 6.524 6.58 6.524 16.307 0 9.727-6.524 16.112-6.524 6.384-16.168 6.384h-93.001v93.001q0 9.644-6.58 16.168-6.58 6.524-16.307 6.524Zm5.58 598.921q-11.932 0-20.004-8.073-8.073-8.072-8.073-20.004v-110.308q0-9.644 6.581-16.168 6.58-6.524 16.307-6.524 9.727 0 16.112 6.524 6.384 6.524 6.384 16.168v93.001h93.001q9.644 0 16.168 6.58 6.524 6.58 6.524 16.307 0 9.728-6.524 16.112-6.524 6.385-16.168 6.385H128.078Zm593.536 0q-9.644 0-16.168-6.581-6.524-6.58-6.524-16.307 0-9.727 6.524-16.112 6.524-6.384 16.168-6.384h93.001v-93.001q0-9.644 6.58-16.168 6.58-6.524 16.307-6.524 9.728 0 16.112 6.524 6.385 6.524 6.385 16.168v110.308q0 11.932-8.073 20.004-8.072 8.073-20.004 8.073H721.614Zm115.497-598.921q-9.727 0-16.112-6.524-6.384-6.524-6.384-16.168v-93.001h-93.001q-9.644 0-16.168-6.58-6.524-6.58-6.524-16.307 0-9.728 6.524-16.112 6.524-6.385 16.168-6.385h110.308q11.932 0 20.004 8.073 8.073 8.072 8.073 20.004v110.308q0 9.644-6.581 16.168-6.58 6.524-16.307 6.524ZM694.537-264.463h56.462v56.462h-56.462v-56.462Zm0-112.922h56.462v56.461h-56.462v-56.461Zm-56.076 56.461h56.076v56.461h-56.076v-56.461ZM582-264.463h56.461v56.462H582v-56.462Zm-56.461-56.461H582v56.461h-56.461v-56.461Zm112.922-112.922h56.076v56.461h-56.076v-56.461ZM582-377.385h56.461v56.461H582v-56.461Zm-56.461-56.461H582v56.461h-56.461v-56.461Zm225.46-318.153v225.845h-225.46v-225.845h225.46ZM433.846-433.846v225.845H208.001v-225.845h225.845Zm0-318.153v225.845H208.001v-225.845h225.845Zm-40.384 503.614v-145.077H248.385v145.077h145.077Zm0-318.153v-145.077H248.385v145.077h145.077Zm317.153 0v-145.077H565.923v145.077h144.692Z"
     id="path6090"
     style="fill:#ca5d22;fill-opacity:1" />
</svg>
